<?xml version="1.0" encoding="UTF-8"?>
<svg version="1.1" xmlns="http://www.w3.org/2000/svg" width="1951" height="451">
<path d="M0 0 C1.23481613 -0.00191345 2.46963226 -0.0038269 3.74186707 -0.00579834 C6.33776047 -0.00715094 8.93366086 -0.00351966 11.52954102 0.00488281 C15.45930521 0.01556746 19.38860943 0.00496957 23.31835938 -0.0078125 C53.70914562 -0.0265097 53.70914562 -0.0265097 68.29296875 4.453125 C68.99679687 4.66598145 69.700625 4.87883789 70.42578125 5.09814453 C80.97360534 8.45883033 90.38920495 13.93711931 98.66796875 21.265625 C100.01181641 22.45091797 100.01181641 22.45091797 101.3828125 23.66015625 C115.92751821 37.28708903 124.1954896 56.07491557 124.87304688 76.02050781 C124.97732378 80.58669922 124.99422306 85.15126581 124.98364258 89.71850586 C124.98048656 92.56207807 125.00399889 95.40460281 125.02929688 98.24804688 C125.1097536 121.21850457 120.26936494 141.68930898 104.0625 158.890625 C84.83984796 177.95648543 59.92837486 183.61560508 33.55078125 183.53125 C32.03913308 183.53260156 30.52748533 183.53454614 29.01583862 183.53704834 C25.87444855 183.53997116 22.73317343 183.53579109 19.59179688 183.52636719 C15.58069899 183.5149148 11.56986716 183.52158647 7.55877876 183.53351212 C4.447988 183.54075765 1.33725983 183.53843146 -1.77353287 183.53325653 C-3.25260577 183.53193054 -4.73168451 183.53353056 -6.21075058 183.53821564 C-8.27720886 183.54333223 -10.34324119 183.53550221 -12.40966797 183.52441406 C-14.16620193 183.52202728 -14.16620193 183.52202728 -15.95822144 183.51959229 C-20.26566833 183.19534443 -24.43261576 182.44457255 -28.14453125 180.140625 C-32.74953612 172.86956468 -31.61533293 163.31120539 -31.59082031 155.05639648 C-31.59353371 153.51979405 -31.5970966 151.98319292 -31.60144043 150.44659424 C-31.61052447 146.29173909 -31.60703688 142.13698375 -31.60068226 137.98212695 C-31.5956025 133.62521273 -31.60031911 129.26830679 -31.60345459 124.91139221 C-31.60708809 117.59724399 -31.6023109 110.28313622 -31.59277344 102.96899414 C-31.581886 94.5222199 -31.58541904 86.0755422 -31.59642625 77.62877029 C-31.60551181 70.36485706 -31.60677831 63.10097283 -31.60154891 55.83705574 C-31.59843672 51.5036788 -31.59799929 47.17034719 -31.60462189 42.83697319 C-31.61041334 38.76328909 -31.6063656 34.68972909 -31.59483337 30.61605835 C-31.59219658 29.12415332 -31.59293508 27.63223779 -31.5973587 26.14033699 C-31.60285407 24.09819546 -31.59472952 22.05603101 -31.58599854 20.01390076 C-31.58524448 18.87297187 -31.58449043 17.73204298 -31.58371353 16.55654049 C-31.22330594 11.8439683 -30.42598916 7.71105439 -27.545578 3.9052124 C-20.42853971 -1.36642069 -8.45829244 -0.02952784 0 0 Z M13.66796875 44.265625 C13.66796875 75.615625 13.66796875 106.965625 13.66796875 139.265625 C44.26296074 141.34292456 44.26296074 141.34292456 70.48828125 128.44921875 C81.0734042 115.28430453 81.86621542 97.1018424 80.35546875 80.91796875 C78.98471257 70.45371396 76.10693529 59.58749988 67.6640625 52.609375 C51.24051353 40.9557959 34.04613157 44.265625 13.66796875 44.265625 Z " fill="#2C2763" transform="translate(916.33203125,71.734375)"/>
<path d="M0 0 C1.52444488 -0.0032208 3.04888947 -0.00658546 4.57333374 -0.01008606 C7.76227534 -0.01605291 10.95118994 -0.0179286 14.14013672 -0.01733398 C18.18766258 -0.01723278 22.2350114 -0.03085318 26.2824955 -0.04810619 C29.4313127 -0.05933484 32.58008865 -0.06124986 35.7289238 -0.06072426 C37.21896344 -0.06188931 38.70900468 -0.06622606 40.1990242 -0.07405663 C61.52727204 -0.17561285 81.53565251 2.814228 97.7109375 17.98046875 C111.49047144 32.57719387 114.00602044 49.60410966 113.7109375 68.8359375 C113.23644221 82.34916805 107.91258154 94.43759417 98.3984375 104.16796875 C95.91550908 106.0473795 93.38737964 107.82098904 90.80078125 109.5546875 C88.60866307 111.02679288 86.49574011 112.56471895 84.3984375 114.16796875 C85.03910156 114.86921875 85.67976563 115.57046875 86.33984375 116.29296875 C90.7737771 121.15641874 95.17744643 126.0384625 99.48828125 131.01171875 C101.44383587 133.21921599 103.44325708 135.38272547 105.44995117 137.54370117 C119.91374869 153.13866371 119.91374869 153.13866371 120.8984375 159.29296875 C119.74435475 168.23711004 109.92266442 174.62554297 103.3984375 180.16796875 C102.76679687 180.71066406 102.13515625 181.25335938 101.484375 181.8125 C97.10366744 185.28306056 93.86123599 186.16796875 88.3984375 186.16796875 C83.82552987 184.05337258 80.93020034 180.66307292 77.7734375 176.85546875 C77.25056152 176.23518799 76.72768555 175.61490723 76.18896484 174.97583008 C72.25338691 170.27628702 68.44951076 165.47863847 64.68945312 160.63818359 C59.82167516 154.38333195 54.76948681 148.28443428 49.7109375 142.18359375 C47.66449797 139.71334924 45.64005475 137.22948214 43.6484375 134.71484375 C42.8646875 133.73 42.0809375 132.74515625 41.2734375 131.73046875 C40.61085938 130.88613281 39.94828125 130.04179687 39.265625 129.171875 C36.0983316 125.77266682 33.20548808 124.92977839 28.6328125 124.75390625 C27.74335937 124.71523437 26.85390625 124.6765625 25.9375 124.63671875 C25.01710938 124.60578125 24.09671875 124.57484375 23.1484375 124.54296875 C22.21257812 124.50429687 21.27671875 124.465625 20.3125 124.42578125 C18.00800696 124.33172031 15.70351737 124.24607476 13.3984375 124.16796875 C13.40731995 124.82085373 13.41620239 125.47373871 13.425354 126.14640808 C13.51386666 132.94330081 13.57418836 139.74002974 13.61816406 146.53735352 C13.63827591 149.0738795 13.66556911 151.61035915 13.70019531 154.14672852 C13.74872992 157.79324786 13.77141113 161.43915403 13.7890625 165.0859375 C13.80970764 166.21944138 13.83035278 167.35294525 13.85162354 168.52079773 C13.85385311 176.34855903 13.85385311 176.34855903 11.62402344 180.3605957 C6.39374592 184.60804463 -0.51895576 183.38927534 -6.96386719 183.40820312 C-8.96301222 183.417903 -10.96201484 183.4491131 -12.9609375 183.48046875 C-14.23195313 183.485625 -15.50296875 183.49078125 -16.8125 183.49609375 C-17.97056152 183.50543945 -19.12862305 183.51478516 -20.32177734 183.52441406 C-24.04755301 183.11949874 -26.4416774 182.16460909 -29.6015625 180.16796875 C-30.74993366 176.72285527 -30.73326225 174.06035207 -30.74200439 170.42495728 C-30.74497552 169.73580148 -30.74794664 169.04664569 -30.7510078 168.33660638 C-30.75969525 166.02208082 -30.76120307 163.70760699 -30.76269531 161.39306641 C-30.76732341 159.73573191 -30.77234806 158.07839847 -30.77774048 156.42106628 C-30.79086626 151.91485398 -30.79730965 147.40865658 -30.80175114 142.90242815 C-30.80468124 140.08804021 -30.80878591 137.27365636 -30.81325531 134.45927048 C-30.82692998 125.65626819 -30.8365971 116.85327522 -30.8404572 108.05026305 C-30.84493967 97.88347345 -30.86249645 87.71681819 -30.8914578 77.55006945 C-30.9130603 69.6943667 -30.9231607 61.83870179 -30.92449832 53.98296964 C-30.92554727 49.28960533 -30.93147426 44.59636729 -30.94931793 39.90303421 C-30.96577415 35.48877918 -30.96796609 31.0747457 -30.95917892 26.66047096 C-30.95840726 25.04032995 -30.96276823 23.42017714 -30.97263718 21.80006599 C-30.98532132 19.58809499 -30.9794998 17.37691285 -30.96905518 15.16494751 C-30.97052174 13.92718882 -30.9719883 12.68943012 -30.9734993 11.41416359 C-30.56854113 7.87976438 -29.70030755 6.00716061 -27.6015625 3.16796875 C-20.62604126 -1.99908402 -8.28172167 0.00413418 0 0 Z M13.3984375 41.16796875 C13.3984375 55.35796875 13.3984375 69.54796875 13.3984375 84.16796875 C22.7415625 84.29171875 22.7415625 84.29171875 32.2734375 84.41796875 C34.21847168 84.45438477 36.16350586 84.49080078 38.16748047 84.52832031 C52.54146813 84.76302365 52.54146813 84.76302365 64.8359375 77.98046875 C69.10968637 70.28772078 70.1315378 63.86054996 68.3984375 55.16796875 C66.57382987 49.79551296 63.11968983 46.2115722 58.3984375 43.16796875 C53.25671144 41.01776561 48.75110918 40.90367878 43.28125 40.97265625 C42.52062256 40.97467041 41.75999512 40.97668457 40.97631836 40.97875977 C38.15862929 40.98915507 35.34102678 41.01707727 32.5234375 41.04296875 C26.2121875 41.08421875 19.9009375 41.12546875 13.3984375 41.16796875 Z " fill="#2C2763" transform="translate(1260.6015625,71.83203125)"/>
<path d="M0 0 C17.23684721 14.45757262 27.35375256 33.72064371 29.51953125 56.11328125 C29.66961135 59.10321277 29.70641882 62.08865026 29.72265625 65.08203125 C29.72835632 65.92060669 29.7340564 66.75918213 29.7399292 67.62316895 C29.74932348 69.39134483 29.75589083 71.15953778 29.75976562 72.92773438 C29.7694046 75.57845251 29.80045377 78.22837159 29.83203125 80.87890625 C29.98796417 105.69646381 24.07305098 127.37025813 6.75390625 145.96484375 C-10.88115033 162.92162892 -33.28550064 170.54274596 -57.48046875 170.11328125 C-80.74015815 169.16632189 -101.14486239 159.13363575 -117.16796875 142.42578125 C-131.77525645 125.59336908 -136.74674424 104.98744325 -137.48046875 83.11328125 C-137.52171875 81.94539063 -137.56296875 80.7775 -137.60546875 79.57421875 C-138.0550539 53.77927095 -134.39541445 30.38929607 -117.48046875 10.11328125 C-116.70703125 9.13875 -115.93359375 8.16421875 -115.13671875 7.16015625 C-87.0050761 -26.45697139 -32.66248394 -25.21915927 0 0 Z M-82.80859375 37.05859375 C-94.59594618 51.5449194 -93.47240644 72.5870217 -92.2421875 90.16796875 C-91.0556127 100.93104117 -86.86188634 111.86298417 -78.48046875 119.11328125 C-67.96067561 126.52182838 -58.11834593 128.31288991 -45.48046875 127.11328125 C-35.92981897 125.10741686 -28.62230263 120.25260648 -22.73046875 112.55078125 C-12.28919616 96.43594044 -12.60145158 72.70262608 -16.0078125 54.2578125 C-18.75381048 43.77752437 -24.6826075 35.38918557 -33.48046875 29.11328125 C-50.3805847 19.6327284 -69.51075907 23.34887923 -82.80859375 37.05859375 Z " fill="#2C2763" transform="translate(827.48046875,87.88671875)"/>
<path d="M0 0 C2.16183483 -0.00067488 4.32366958 -0.00164644 6.48550415 -0.00289917 C10.99213389 -0.00436557 15.49874369 -0.00225453 20.00537109 0.00244141 C25.77188376 0.00815871 31.53835007 0.00484035 37.30486107 -0.00113106 C41.75900623 -0.00474775 46.21314043 -0.00359333 50.66728592 -0.00100327 C52.79389069 -0.00033813 54.92049647 -0.00114791 57.04710007 -0.00348282 C60.01629014 -0.00602981 62.98540533 -0.00214081 65.95458984 0.00341797 C67.26076263 0.00038162 67.26076263 0.00038162 68.59332275 -0.00271606 C81.3096899 0.04125858 81.3096899 0.04125858 84.94116211 3.265625 C87.72566215 8.26198382 87.16790631 13.4515876 87.11547852 19.05273438 C87.10159517 21.12792921 87.13572429 23.198622 87.17382812 25.2734375 C87.17189453 26.58828125 87.16996094 27.903125 87.16796875 29.2578125 C87.1690564 31.05605469 87.1690564 31.05605469 87.17016602 32.890625 C86.33666482 37.17259634 84.95058788 38.44999941 81.5390625 41.1328125 C78.63701117 41.60259667 76.33484461 41.76983898 73.4440918 41.70043945 C72.24330742 41.70153465 72.24330742 41.70153465 71.01826477 41.70265198 C68.38257153 41.69917935 65.74866421 41.66033584 63.11328125 41.62109375 C61.28197698 41.61176442 59.45066021 41.60464887 57.61933899 41.59965515 C52.80709173 41.58059476 47.99560302 41.53150234 43.18365479 41.47613525 C38.27032736 41.42492201 33.35687697 41.40213668 28.44335938 41.37695312 C18.80820741 41.32338229 9.17381681 41.23545436 -0.4609375 41.1328125 C-0.4609375 51.3628125 -0.4609375 61.5928125 -0.4609375 72.1328125 C4.210625 72.10960937 8.8821875 72.08640625 13.6953125 72.0625 C16.66667227 72.05227288 19.63801014 72.04264437 22.609375 72.03515625 C27.31873113 72.0232317 32.02800898 72.00917198 36.73730469 71.98193359 C40.53688918 71.96009615 44.33638966 71.94822103 48.1360321 71.94305801 C49.58079855 71.93938173 51.02556076 71.93220317 52.47029114 71.92135239 C67.27888863 71.81462196 67.27888863 71.81462196 73.5390625 74.1328125 C76.69730721 78.87017957 75.91101571 83.95459791 75.90966797 89.52954102 C75.91404086 91.56026104 75.95036787 93.58880517 75.98828125 95.61914062 C75.99214844 96.90111328 75.99601562 98.18308594 76 99.50390625 C76.00821777 100.67880615 76.01643555 101.85370605 76.02490234 103.06420898 C75.5390625 106.1328125 75.5390625 106.1328125 74.19775391 108.48461914 C66.63928555 113.17031426 54.69913464 111.26512456 46.12109375 111.23046875 C44.76918084 111.22859848 43.41726723 111.22717746 42.06535339 111.22618103 C38.54570571 111.22240377 35.02610078 111.21261576 31.50646973 111.20147705 C27.89950143 111.19115858 24.29252586 111.18660608 20.68554688 111.18164062 C13.63668128 111.17152167 6.58793232 111.15193816 -0.4609375 111.1328125 C-0.4609375 121.3628125 -0.4609375 131.5928125 -0.4609375 142.1328125 C2.00213867 142.12233887 4.46521484 142.11186523 7.00292969 142.10107422 C15.13734592 142.06794726 23.27176512 142.04584791 31.40623093 142.02918816 C36.33856522 142.01874718 41.27083045 142.0045822 46.203125 141.98193359 C50.9622999 141.96021649 55.72140834 141.94824624 60.48062897 141.94305801 C62.29712216 141.93936023 64.11361168 141.93213947 65.9300766 141.92135239 C68.47267036 141.90685254 71.01498879 141.90483393 73.55761719 141.90576172 C74.30999664 141.89857117 75.0623761 141.89138062 75.83755493 141.88397217 C79.53526914 141.89859018 82.4671021 141.94027769 85.5390625 144.1328125 C87.5495517 147.80040324 87.79564102 150.99727883 87.8046875 155.1328125 C87.80726563 156.2671875 87.80984375 157.4015625 87.8125 158.5703125 C87.80476563 159.7459375 87.79703125 160.9215625 87.7890625 162.1328125 C87.79679687 163.3084375 87.80453125 164.4840625 87.8125 165.6953125 C87.80992187 166.8296875 87.80734375 167.9640625 87.8046875 169.1328125 C87.80243164 170.1640625 87.80017578 171.1953125 87.79785156 172.2578125 C87.43018268 176.34240561 86.82841848 179.03293578 83.6396637 181.75308228 C79.00835156 183.81396045 74.64877539 183.55040965 69.63354492 183.52099609 C68.53375809 183.52625305 67.43397125 183.53151001 66.30085754 183.53692627 C62.66527093 183.55012931 59.03012233 183.54138491 55.39453125 183.53125 C52.86493343 183.53327107 50.33533618 183.53618279 47.80574036 183.53994751 C42.50218628 183.54437166 37.19878881 183.53822517 31.89526367 183.52392578 C25.77915904 183.50762505 19.66335486 183.51287017 13.5472576 183.529405 C7.64885873 183.54470848 1.75055247 183.54302518 -4.14786339 183.5342598 C-6.65043874 183.53226191 -9.15302178 183.53470257 -11.65558815 183.54169846 C-15.15967528 183.54934226 -18.66319155 183.53766567 -22.16723633 183.52099609 C-23.71128647 183.53010513 -23.71128647 183.53010513 -25.28652954 183.53939819 C-31.36567899 183.48599508 -35.94456142 182.75622184 -41.4609375 180.1328125 C-45.46998046 175.21850177 -45.58559203 169.80003803 -45.59465027 163.66300964 C-45.59891525 162.35508957 -45.60318024 161.04716949 -45.60757446 159.69961548 C-45.60722498 158.25701901 -45.60676346 156.81442257 -45.60620117 155.37182617 C-45.60919454 153.8471417 -45.61259748 152.32245799 -45.61637878 150.79777527 C-45.62520539 146.66129842 -45.62755635 142.52484227 -45.62819457 138.38835692 C-45.62890589 135.8020829 -45.63104178 133.21581412 -45.63369179 130.6295414 C-45.64294113 121.60125012 -45.64702723 112.57297359 -45.64624023 103.54467773 C-45.64563971 95.13832277 -45.65618758 86.73203203 -45.6719839 78.32569331 C-45.68507461 71.10089574 -45.69042348 63.87611912 -45.68978482 56.65130979 C-45.68953027 52.33964709 -45.69235814 48.02804146 -45.70296288 43.71639061 C-45.7126695 39.6591687 -45.7127055 35.60205814 -45.70544624 31.54483223 C-45.70440355 30.05979626 -45.70674449 28.57475327 -45.7128067 27.08972931 C-45.76796567 12.63604709 -45.76796567 12.63604709 -43.4609375 6.1328125 C-33.75422293 -3.57390207 -12.74698556 -0.01408841 0 0 Z " fill="#2C2763" transform="translate(1114.4609375,71.8671875)"/>
<path d="M0 0 C24.25326259 -0.61791752 50.69120665 3.28248859 69.81640625 19.34765625 C79.14491892 28.4364641 83.6621069 39.31988788 83.89599609 52.25610352 C83.9115515 54.3493097 83.9170168 56.44213832 83.91501999 58.5354023 C83.91404525 60.79387419 83.9271057 63.05188241 83.94400024 65.31028748 C83.98999979 71.72562172 84.01488175 78.14090263 84.02148438 84.55639648 C84.0265129 88.49508727 84.05082035 92.43328543 84.08681107 96.37180901 C84.09656867 97.86480686 84.09896316 99.35787277 84.09363937 100.85089302 C83.93481907 111.67289146 83.93481907 111.67289146 88.640625 121.125 C89.13191895 121.85920166 89.62321289 122.59340332 90.12939453 123.34985352 C90.58942871 123.97819092 91.04946289 124.60652832 91.5234375 125.25390625 C92.04574951 125.9715918 92.56806152 126.68927734 93.10620117 127.42871094 C93.65381104 128.17411133 94.2014209 128.91951172 94.765625 129.6875 C95.93129619 131.28753709 97.09665768 132.88779985 98.26171875 134.48828125 C98.83519043 135.27412598 99.40866211 136.0599707 99.99951172 136.86962891 C102.69990169 140.58075693 105.37090418 144.31279366 108.01953125 148.06103516 C110.12382747 151.03318052 112.26799322 153.96269258 114.48046875 156.85546875 C115.17910034 157.78601074 115.17910034 157.78601074 115.8918457 158.73535156 C116.77920837 159.91555811 117.67932395 161.08633119 118.59448242 162.24511719 C120.75814427 165.15211496 121.64782693 167.1753598 122.1640625 170.78515625 C121.53903018 174.77323563 120.80530139 175.70359719 117.640625 178.125 C114.58789062 178.60742188 114.58789062 178.60742188 111.046875 178.59375 C109.13068359 178.61501953 109.13068359 178.61501953 107.17578125 178.63671875 C105.15474613 178.63426067 103.13380703 178.62496881 101.11279297 178.61572266 C99.15327519 178.61333939 97.19377352 178.63450087 95.234375 178.65625 C94.06583984 178.65173828 92.89730469 178.64722656 91.69335938 178.64257812 C87.84124739 179.25132519 86.93476864 179.98842066 84.640625 183.125 C84.25310787 186.15991269 84.10673049 188.8321944 84.14233398 191.86572266 C84.13681519 192.74757233 84.13129639 193.629422 84.12561035 194.53799438 C84.11628895 196.45207112 84.11618634 198.36620987 84.12420464 200.28029251 C84.13683295 203.31651953 84.12554376 206.35183704 84.10816956 209.38803101 C84.08143389 214.74690077 84.07587459 220.1055483 84.07727051 225.46447754 C84.07949566 234.02019218 84.06520194 242.57562968 84.02168465 251.13123703 C84.01189563 254.11023429 84.0205415 257.08879172 84.03038025 260.06777954 C84.02422984 261.91449259 84.01731605 263.76120331 84.00952148 265.60791016 C84.01724075 266.42594116 84.02496002 267.24397217 84.03291321 268.08679199 C83.93154642 279.81829795 79.29150799 290.76484324 71.421875 299.4375 C54.10276903 315.84507408 29.2401397 319.50056309 6.35327148 319.49560547 C4.0492557 319.50005576 1.747048 319.53674457 -0.55664062 319.57421875 C-2.03384772 319.58007533 -3.51106375 319.58405246 -4.98828125 319.5859375 C-5.6705629 319.60030853 -6.35284454 319.61467957 -7.05580139 319.62948608 C-10.1713769 319.59945845 -12.1294769 319.26883949 -14.78686523 317.60620117 C-16.98642166 314.1356078 -16.93320346 310.94770342 -16.890625 306.96484375 C-16.8944519 306.17856094 -16.89827881 305.39227814 -16.90222168 304.58216858 C-16.90493823 302.92382523 -16.89759486 301.26543886 -16.88085938 299.60717773 C-16.85941492 297.06722796 -16.88068174 294.53009721 -16.90625 291.99023438 C-16.90360724 290.37759792 -16.89848332 288.76496322 -16.890625 287.15234375 C-16.89872192 286.39291977 -16.90681885 285.63349579 -16.91516113 284.85105896 C-16.85742094 281.61062118 -16.81633021 279.64413828 -14.62988281 277.16015625 C-12.11119126 276.01184956 -10.26100335 275.67511129 -7.5 275.53515625 C-6.08473022 275.44572754 -6.08473022 275.44572754 -4.64086914 275.35449219 C-3.14027954 275.27183105 -3.14027954 275.27183105 -1.609375 275.1875 C18.27703365 274.14710881 18.27703365 274.14710881 34.640625 264.125 C39.29838636 257.37880286 39.76344069 250.20569479 39.76660156 242.15161133 C39.7684697 241.49377151 39.77033783 240.8359317 39.77226257 240.15815735 C39.77623677 238.74338481 39.77833864 237.32860597 39.77872467 235.9138279 C39.78306588 232.12019928 39.81414476 228.32673607 39.83984375 224.53320312 C39.87025747 219.72040544 39.89293492 214.90787367 39.89111328 210.0949707 C39.89032688 206.18975338 39.91364303 202.28532663 39.9529953 198.38031578 C39.96345463 196.89600871 39.96497971 195.41161043 39.95734406 193.92728615 C39.94773338 191.85405028 39.96887001 189.78322315 39.99707031 187.71020508 C40.00071594 186.53218826 40.00436157 185.35417145 40.00811768 184.14045715 C40.640625 181.125 40.640625 181.125 42.99343872 178.74357605 C46.21243255 176.77537821 48.17595042 176.64065353 51.9296875 176.65625 C53.71246094 176.63498047 53.71246094 176.63498047 55.53125 176.61328125 C56.76359375 176.61714844 57.9959375 176.62101563 59.265625 176.625 C61.71615606 176.63264199 64.16681967 176.62304788 66.6171875 176.59375 C68.24261475 176.60051758 68.24261475 176.60051758 69.90087891 176.60742188 C72.75091258 176.37732476 72.75091258 176.37732476 74.51416016 174.2355957 C75.8079652 172.19446605 75.8079652 172.19446605 75.6875 169.88671875 C74.11222074 165.73103803 71.54784477 162.47320891 68.890625 158.9375 C67.70418129 157.32830619 66.51799069 155.71892574 65.33203125 154.109375 C64.41574951 152.87477539 64.41574951 152.87477539 63.48095703 151.61523438 C60.56143971 147.66470683 57.69669597 143.67508668 54.828125 139.6875 C53.82207746 138.29263479 52.81557399 136.89809828 51.80859375 135.50390625 C51.31294922 134.7879126 50.81730469 134.07191895 50.30664062 133.33422852 C48.66631455 131.04964991 48.66631455 131.04964991 46.50585938 129.00756836 C37.80910809 119.57739104 39.59994035 107.64425964 39.765625 95.5625 C39.77915888 92.24403992 39.78133315 88.92591638 39.77462769 85.60743713 C39.77385757 83.55379527 39.78626555 81.50008815 39.81448364 79.44664001 C39.87927983 69.16131487 39.00416216 60.65106859 31.578125 53 C21.6870765 46.68656479 9.99705356 45.41419574 -1.51171875 44.92578125 C-2.18750977 44.89444092 -2.86330078 44.86310059 -3.55957031 44.83081055 C-5.44392346 44.75418636 -7.32945074 44.70823571 -9.21484375 44.6640625 C-13.09129868 43.99952737 -14.03031975 43.26518443 -16.359375 40.125 C-16.7571587 37.27277826 -16.92108593 34.81421017 -16.890625 31.96484375 C-16.8944519 31.17856094 -16.89827881 30.39227814 -16.90222168 29.58216858 C-16.90493823 27.92382523 -16.89759486 26.26543886 -16.88085938 24.60717773 C-16.85941492 22.06722796 -16.88068174 19.53009721 -16.90625 16.99023438 C-16.90360724 15.37759792 -16.89848332 13.76496322 -16.890625 12.15234375 C-16.89872192 11.39291977 -16.90681885 10.63349579 -16.91516113 9.85105896 C-16.82168758 4.6052289 -16.82168758 4.6052289 -14.46313477 2.15527344 C-9.9548285 -0.05257761 -4.92927605 0.2611537 0 0 Z " fill="#E72E58" transform="translate(300.359375,65.875)"/>
<path d="M0 0 C0.85464844 0.00064453 1.70929688 0.00128906 2.58984375 0.00195312 C15.43789839 0.09076456 15.43789839 0.09076456 19.25 3 C21.74751982 6.36204591 21.99902307 9.43790809 22.01303101 13.54946899 C22.01848434 14.41558807 22.02393768 15.28170715 22.02955627 16.17407227 C22.0305986 17.11645752 22.03164093 18.05884277 22.03271484 19.02978516 C22.03779556 20.02867767 22.04287628 21.02757019 22.04811096 22.05673218 C22.05880959 24.22619374 22.06743176 26.3956663 22.07423019 28.56514359 C22.08603294 32.00437397 22.1054911 35.44347957 22.12734985 38.88265991 C22.18890831 48.66147681 22.24293624 58.44028158 22.27636719 68.21923828 C22.29737053 74.2021287 22.33272239 80.18479246 22.37712479 86.16755295 C22.39124313 88.44236957 22.39999776 90.7172263 22.40317917 92.9920845 C22.40811516 96.18457822 22.43134385 99.37647605 22.45849609 102.56884766 C22.45548996 103.49908752 22.45248383 104.42932739 22.4493866 105.38775635 C22.57912915 115.71568797 25.55827457 124.95014859 31.875 133.1875 C40.26529693 141.28788829 49.98909032 143.6076534 61.3984375 143.453125 C70.86878098 142.7295482 77.94408318 139.36699961 84.7421875 132.765625 C89.78268572 126.67271506 92.96908791 118.96090086 93.02648926 111.01535034 C93.03483292 110.19130203 93.04317657 109.36725372 93.05177307 108.51823425 C93.05595749 107.62260269 93.06014191 106.72697113 93.06445312 105.80419922 C93.07274643 104.85407455 93.08103973 103.90394989 93.08958435 102.92503357 C93.10697523 100.86198459 93.12214467 98.79891597 93.13536072 96.73583603 C93.15642743 93.46463705 93.18345124 90.19353517 93.21203613 86.9223938 C93.27171276 79.96913358 93.32381707 73.01582721 93.375 66.0625 C93.43436877 58.02380164 93.49687445 49.98515033 93.56687927 41.94653702 C93.59329476 38.73503388 93.61421055 35.52352565 93.6348877 32.3119812 C93.65150855 30.32370789 93.66838192 28.33543666 93.68554688 26.34716797 C93.68973129 25.46368179 93.69391571 24.58019562 93.69822693 23.66993713 C93.85712474 7.65443788 93.85712474 7.65443788 97 3.125 C102.71822749 -0.72858809 110.05739261 0.00504722 116.75 0 C117.59691406 -0.01224609 118.44382812 -0.02449219 119.31640625 -0.03710938 C123.53017243 -0.04678878 127.65653821 0.15272379 131.8203125 0.82421875 C132.52945801 0.93854248 133.23860352 1.05286621 133.96923828 1.1706543 C137.05837592 2.8189067 137.60428362 4.96306132 138.875 8.1875 C139.30271057 11.5453044 139.28514257 14.87200924 139.26318359 18.25341797 C139.27106903 19.75236855 139.27106903 19.75236855 139.27911377 21.28160095 C139.29230054 24.58112294 139.28357338 27.88016067 139.2734375 31.1796875 C139.2754602 33.48690889 139.27837327 35.79412966 139.28213501 38.10134888 C139.28655793 42.94165116 139.28013408 47.78178736 139.26611328 52.62207031 C139.2491175 58.78597369 139.25880172 64.94948236 139.27683067 71.1133709 C139.28775149 75.88360481 139.28418276 80.65374764 139.2764473 85.42398453 C139.27446313 87.69386976 139.27684094 89.9637636 139.28388596 92.23363876 C139.34892448 119.10478114 135.3532011 142.54192316 116.234375 162.84765625 C99.85886339 179.08760899 79.00121531 186.1520615 56.18994141 186.2265625 C34.82073925 185.86597693 15.34540396 178.09080704 -0.125 163.1875 C-14.68590179 146.93992484 -22.26147116 127.41639413 -22.28613281 105.57983398 C-22.29109772 104.5238501 -22.29606262 103.46786621 -22.30117798 102.37988281 C-22.31574619 98.89777977 -22.32259092 95.41572221 -22.328125 91.93359375 C-22.33387862 89.51034036 -22.33963633 87.08708699 -22.34539795 84.66383362 C-22.35589117 79.58911935 -22.36174556 74.51442085 -22.36523438 69.43969727 C-22.37073097 62.93397022 -22.39479105 56.42845121 -22.42320633 49.92278957 C-22.44181307 44.9205514 -22.44703716 39.91836369 -22.44857025 34.91609383 C-22.45159918 32.51708902 -22.45963575 30.11808515 -22.47275543 27.7191143 C-22.48978261 24.36783742 -22.48794418 21.0170739 -22.48144531 17.66577148 C-22.4906601 16.67394363 -22.49987488 15.68211578 -22.5093689 14.66023254 C-22.47931837 9.72113285 -22.44823753 6.14699541 -19.125 2.1875 C-13.42699401 -0.56076961 -6.18860146 -0.0894851 0 0 Z " fill="#2C2763" transform="translate(1578.125,71.8125)"/>
<path d="M0 0 C9.64244529 4.71368608 21.9691778 14.62837759 25.72265625 24.99609375 C26.63711879 29.55064988 25.7543709 32.94266618 23.48828125 36.9453125 C21.14167936 40.1849781 18.30475966 42.84115333 15.421875 45.6015625 C11.22512054 49.75770321 7.61282483 54.335727 4 59 C3.20722656 60.01449219 2.41445312 61.02898437 1.59765625 62.07421875 C-24.78735651 96.81064342 -33.47554073 141.57801849 -28.23071289 184.38793945 C-23.23470713 217.56320076 -8.65644322 246.43826174 14 271 C15.84946237 273.07562936 17.68305609 275.16203272 19.49609375 277.26953125 C20.75108694 278.71358835 22.0572891 280.1129359 23.375 281.5 C25.57536207 284.88517241 26.17453024 288.031334 26 292 C24.48507526 297.39691939 21.87158007 300.45824815 17.88671875 304.17578125 C15.94507629 306.05310429 14.27395151 308.03757745 12.5625 310.125 C8.26901796 315.0620241 4.00214698 318.52597679 -2.5625 319.5625 C-10.12494597 318.32500884 -15.08180943 313.41054154 -20.25 308.125 C-20.90186279 307.46371094 -21.55372559 306.80242187 -22.2253418 306.12109375 C-28.3578815 299.7996637 -33.84448442 293.13332974 -39 286 C-39.41024414 285.43941895 -39.82048828 284.87883789 -40.24316406 284.30126953 C-60.8063627 255.89865668 -73.5875682 221.70438331 -78 187 C-78.14139404 185.93591919 -78.14139404 185.93591919 -78.28564453 184.8503418 C-79.24371931 176.6964227 -79.24355268 168.51108199 -79.25 160.3125 C-79.25067474 159.53888123 -79.25134949 158.76526245 -79.25204468 157.96820068 C-79.17666335 103.32307598 -59.09511497 51.37422102 -21 12 C-20.54286621 11.52240234 -20.08573242 11.04480469 -19.61474609 10.55273438 C-8.43324715 -1.10599963 -8.43324715 -1.10599963 0 0 Z " fill="#A71580" transform="translate(154,65)"/>
<path d="M0 0 C10.5579727 8.91774466 18.65759787 22.25804599 21.33984375 35.9375 C21.26815593 39.59357857 21.03662842 41.230617 18.453125 43.8515625 C14.1022173 46.76672525 9.5059642 48.37813853 4.58984375 50.125 C3.63851562 50.48013672 2.6871875 50.83527344 1.70703125 51.20117188 C-4.13089152 53.30842208 -9.44037629 54.69661478 -15.66015625 54.9375 C-18.33518183 52.79747953 -19.4177871 50.40359452 -20.98046875 47.3984375 C-26.32821204 37.23492539 -31.77318408 31.17326731 -42.66015625 26.9375 C-52.10060573 24.60707458 -61.00024442 25.48270469 -69.66015625 29.9375 C-79.81281252 36.76935558 -83.94735426 46.29957945 -86.66015625 57.9375 C-87.29121036 61.94469357 -87.54421924 65.88474555 -87.66015625 69.9375 C-87.70011719 71.07703125 -87.74007812 72.2165625 -87.78125 73.390625 C-88.26398343 93.45216831 -88.26398343 93.45216831 -81.66015625 111.9375 C-81.22703125 112.64132813 -80.79390625 113.34515625 -80.34765625 114.0703125 C-75.34106574 121.44414962 -69.25202161 124.871102 -60.66015625 126.9375 C-51.5963908 127.78018522 -43.69607514 127.39538201 -35.66015625 122.9375 C-35.015625 122.586875 -34.37109375 122.23625 -33.70703125 121.875 C-27.74951826 118.14507883 -24.33826622 112.32200269 -21.26953125 106.1328125 C-20.8003125 105.22273438 -20.33109375 104.31265625 -19.84765625 103.375 C-19.44933594 102.52808594 -19.05101562 101.68117188 -18.640625 100.80859375 C-16.66015625 98.9375 -16.66015625 98.9375 -12.73046875 98.390625 C-6.54865252 98.70608138 -1.04862979 100.99547643 4.65234375 103.25 C5.72291016 103.65412109 6.79347656 104.05824219 7.89648438 104.47460938 C17.33037626 108.10757337 17.33037626 108.10757337 20.33984375 110.9375 C21.99582676 122.34538298 15.82891348 133.85280238 9.33984375 142.9375 C-2.77971587 158.41324537 -20.42551938 167.69986406 -39.92041016 170.23095703 C-63.15525893 172.61760367 -85.44645443 168.36077386 -104.22265625 153.8125 C-121.21025691 139.26898433 -130.56342067 120.12290029 -132.66015625 97.9375 C-132.81156209 94.80179916 -132.84715419 91.67029361 -132.86328125 88.53125 C-132.86898132 87.64828247 -132.8746814 86.76531494 -132.8805542 85.85559082 C-132.88995246 83.99325742 -132.89651745 82.13090778 -132.90039062 80.26855469 C-132.9100338 77.47299727 -132.94108114 74.67819603 -132.97265625 71.8828125 C-133.12686333 46.03282865 -127.22250967 23.5590435 -109.1171875 4.3125 C-79.80176865 -24.02418468 -31.79486974 -24.65152896 0 0 Z " fill="#2C2763" transform="translate(651.66015625,87.0625)"/>
<path d="M0 0 C0.95406738 -0.00335861 1.90813477 -0.00671722 2.89111328 -0.01017761 C6.01783581 -0.01961018 9.1445044 -0.02162648 12.27124023 -0.02270508 C14.45881675 -0.02592177 16.64639305 -0.02928615 18.83396912 -0.03279114 C23.40738423 -0.03876225 27.98078049 -0.04063299 32.55419922 -0.04003906 C38.40371636 -0.03993727 44.25311259 -0.05361609 50.10260105 -0.07081127 C54.61598767 -0.0819451 59.12934512 -0.08395788 63.64274406 -0.08342934 C65.79922848 -0.08460633 67.95571372 -0.08901234 70.11218452 -0.0967617 C73.12956301 -0.10659441 76.14667951 -0.1036711 79.1640625 -0.09765625 C80.046884 -0.10327576 80.92970551 -0.10889526 81.83927917 -0.11468506 C87.22324347 -0.08750914 91.87595856 0.49040799 97.01733398 2.14526367 C101.47733529 7.34420011 100.41931043 14.72608995 100.32983398 21.20776367 C100.33305664 22.37887695 100.3362793 23.54999023 100.33959961 24.7565918 C100.27522874 35.0149684 100.27522874 35.0149684 98.01733398 39.14526367 C94.42639124 41.6720003 90.62084957 41.4147328 86.40307617 41.37231445 C85.64171356 41.37260651 84.88035095 41.37289856 84.09591675 41.37319946 C81.58523062 41.37180873 79.07484312 41.35625972 76.56420898 41.34057617 C74.8211483 41.33684513 73.07808551 41.33399859 71.33502197 41.33200073 C66.75156851 41.32437147 62.16824217 41.30472904 57.58483887 41.28259277 C52.08321764 41.25851826 46.58155386 41.24934999 41.07989502 41.23768616 C32.72561964 41.21830424 24.37162311 41.17997678 16.01733398 41.14526367 C16.01733398 53.02526367 16.01733398 64.90526367 16.01733398 77.14526367 C21.15682617 77.09885742 26.29631836 77.05245117 31.59155273 77.00463867 C34.85003651 76.98419735 38.10844109 76.96494148 41.36694336 76.94995117 C46.53760217 76.92605143 51.70797731 76.8977964 56.87841797 76.84350586 C61.04759133 76.8000034 65.21646044 76.77611726 69.38584328 76.7657547 C70.97546999 76.75837117 72.56508028 76.74395264 74.15457726 76.72234344 C76.38352648 76.69324959 78.61122308 76.68930996 80.84033203 76.69116211 C82.74228584 76.67783844 82.74228584 76.67783844 84.68266296 76.66424561 C88.60961184 77.23069829 90.25140965 78.35144473 93.01733398 81.14526367 C94.74239278 86.34669667 94.20143012 92.15360541 94.20483398 97.58276367 C94.21708008 98.60692383 94.22932617 99.63108398 94.24194336 100.6862793 C94.2617609 110.89231058 94.2617609 110.89231058 92.01733398 115.14526367 C87.98506416 118.22398125 84.93602207 118.51250357 79.93212891 118.48583984 C79.23889526 118.48627792 78.54566162 118.486716 77.8314209 118.48716736 C75.55325587 118.48508697 73.27583827 118.46179261 70.99780273 118.43823242 C69.41311546 118.43263377 67.82842297 118.42836494 66.24372864 118.42536926 C62.08270815 118.41394161 57.92200423 118.38449259 53.7611084 118.35125732 C49.51127403 118.32051142 45.26138826 118.30685429 41.01147461 118.29174805 C32.67994949 118.25962066 24.34868117 118.20844977 16.01733398 118.14526367 C16.02177521 118.84826096 16.02621643 119.55125824 16.03079224 120.27555847 C16.07091932 126.9109637 16.10134395 133.54633491 16.12095833 140.18183422 C16.13138138 143.5929553 16.14551337 147.00397584 16.16821289 150.41503906 C16.19416403 154.33942448 16.20381903 158.26376963 16.21264648 162.18823242 C16.22296906 163.40923141 16.23329163 164.63023041 16.243927 165.88822937 C16.24415359 167.59943718 16.24415359 167.59943718 16.24438477 169.34521484 C16.24882599 170.34671066 16.25326721 171.34820648 16.25784302 172.38005066 C15.90202665 176.47099077 14.92956496 179.2330327 12.01733398 182.14526367 C6.86922185 183.98084304 1.04096008 183.36968034 -4.3449707 183.38549805 C-6.34411574 183.39519793 -8.34311836 183.42640802 -10.34204102 183.45776367 C-11.61305664 183.46291992 -12.88407227 183.46807617 -14.19360352 183.47338867 C-15.35166504 183.48273438 -16.50972656 183.49208008 -17.70288086 183.50170898 C-21.40677319 183.09917193 -23.81246802 182.07331672 -26.98266602 180.14526367 C-30.67278987 172.76501595 -29.12442015 161.79918335 -29.11206055 153.7980957 C-29.11341838 152.37768509 -29.11520046 150.95727484 -29.11737061 149.53686523 C-29.12190028 145.70618644 -29.12017364 141.87553481 -29.11699152 138.04485559 C-29.11444373 134.01727893 -29.11681225 129.98970445 -29.11837769 125.96212769 C-29.12019277 119.1987873 -29.11781088 112.43545786 -29.11303711 105.67211914 C-29.10760018 97.87980556 -29.10935569 90.08751818 -29.11486351 82.29520524 C-29.11941878 75.5789458 -29.12003329 68.86269419 -29.11742485 62.14643371 C-29.11587475 58.14661027 -29.11563317 54.1467991 -29.11896133 50.14697647 C-29.12187511 46.38271627 -29.11980071 42.61848943 -29.11406708 38.85423279 C-29.11213922 36.83367965 -29.11506368 34.81312365 -29.11819458 32.79257202 C-29.06512804 9.63547122 -29.06512804 9.63547122 -24.98266602 4.14526367 C-17.85286488 -0.77769426 -8.34225596 -0.00429224 0 0 Z " fill="#2C2763" transform="translate(1431.982666015625,71.854736328125)"/>
<path d="M0 0 C1.27037109 -0.01836914 1.27037109 -0.01836914 2.56640625 -0.03710938 C6.78017243 -0.04678878 10.90653821 0.15272379 15.0703125 0.82421875 C15.77945801 0.93854248 16.48860352 1.05286621 17.21923828 1.1706543 C20.38715754 2.86094173 20.86241022 4.82827446 22.125 8.1875 C22.55670499 12.42363807 22.50371063 16.63938048 22.46557617 20.89404297 C22.46623329 22.81193382 22.46623329 22.81193382 22.46690369 24.76856995 C22.46776209 28.26203255 22.45016181 31.7551842 22.42918181 35.24857473 C22.41038896 38.90407312 22.40866252 42.55957916 22.40510559 46.21511841 C22.39579276 53.13172552 22.37118939 60.04818986 22.34105712 66.9647342 C22.30748931 74.84136593 22.29102113 82.71800459 22.27597082 90.59469008 C22.24463908 106.79237688 22.19189352 122.9899202 22.125 139.1875 C23.47350792 139.18083817 23.47350792 139.18083817 24.84925842 139.17404175 C33.33828158 139.1339004 41.82727266 139.10348276 50.31636906 139.08387566 C54.68027369 139.07345646 59.04409963 139.05933141 63.40795898 139.03662109 C67.62250475 139.0148261 71.83697501 139.00291736 76.0515728 138.99774551 C77.65625636 138.99406169 79.26093598 138.98686815 80.86558723 138.97603989 C83.12019782 138.96143631 85.37449982 138.95952573 87.62915039 138.96044922 C89.55108971 138.95378738 89.55108971 138.95378738 91.51185608 138.94699097 C95.34400886 139.20207833 98.52269189 139.85959664 102.125 141.1875 C106.22669017 147.21447331 105.57127307 154.12354662 105.5 161.1875 C105.51160156 162.33734375 105.52320313 163.4871875 105.53515625 164.671875 C105.5138391 170.83963639 105.48791197 175.90082617 102.125 181.1875 C97.32961929 184.04729779 91.84652172 183.46788641 86.44726562 183.44628906 C84.83424812 183.45154602 84.83424812 183.45154602 83.18864441 183.45690918 C79.63611383 183.46570747 76.08378259 183.45988393 72.53125 183.453125 C70.0617265 183.45447219 67.59220326 183.45641318 65.12268066 183.45892334 C59.94780959 183.46187203 54.77300758 183.45758508 49.59814453 183.44824219 C42.96350864 183.43684789 36.32903456 183.44340871 29.6944046 183.45538712 C24.59522278 183.46261254 19.49607934 183.46031462 14.39689636 183.45513153 C11.95045452 183.45379693 9.50400919 183.45543613 7.05757141 183.46009064 C3.63919841 183.46516696 0.22108783 183.45742976 -3.19726562 183.44628906 C-4.209366 183.45033752 -5.22146637 183.45438599 -6.26423645 183.45855713 C-15.24542724 183.40430504 -15.24542724 183.40430504 -18.875 181.1875 C-22.23983499 177.7348339 -22.25534815 174.96520943 -22.26940918 170.24830627 C-22.27550028 169.55012895 -22.28159139 168.85195163 -22.28786707 168.13261741 C-22.30451468 165.79340572 -22.29971895 163.45473731 -22.29492188 161.11547852 C-22.30226119 159.4382877 -22.31084701 157.76110193 -22.32058716 156.08392334 C-22.34282592 151.52814002 -22.34573268 146.97253743 -22.34383965 142.41670728 C-22.34372006 138.61440926 -22.35227931 134.8121497 -22.36061716 131.00986236 C-22.37985955 122.04032167 -22.38273193 113.07087404 -22.37597656 104.10131836 C-22.369334 94.84557601 -22.3922068 85.59023201 -22.42929029 76.33457047 C-22.45996813 68.38965573 -22.47134944 60.44486926 -22.46745348 52.49989647 C-22.46538408 47.75393966 -22.47089459 43.00829282 -22.49534607 38.26239204 C-22.51757926 33.79955 -22.51576426 29.3373565 -22.49541855 24.87451172 C-22.49200245 23.23663265 -22.49712346 21.59871021 -22.51140213 19.96088982 C-22.52955477 17.72439337 -22.51687926 15.49010654 -22.49645996 13.25367737 C-22.49717247 12.00246881 -22.49788498 10.75126024 -22.49861908 9.46213627 C-21.70170006 5.27749855 -20.17271016 3.80053451 -16.875 1.1875 C-11.38324361 -0.18879592 -5.64281436 0.00425552 0 0 Z " fill="#2C2763" transform="translate(1770.875,71.8125)"/>
<path d="M0 0 C3.62471857 -0.11783281 7.24893403 -0.18778808 10.875 -0.25 C11.88820313 -0.28351563 12.90140625 -0.31703125 13.9453125 -0.3515625 C21.59017696 -0.44957358 29.08298345 0.41440061 34.94482422 5.78027344 C40.57406136 12.00513158 41.38642191 17.04345414 41.4375 25.25 C41.47037109 26.16652344 41.50324219 27.08304687 41.53710938 28.02734375 C41.58875936 34.61036911 40.30520468 38.95337353 36 44 C33.8671875 45.83984375 33.8671875 45.83984375 31.875 46.9375 C30.88113281 47.50791016 30.88113281 47.50791016 29.8671875 48.08984375 C24.28965701 50.80859815 18.51129935 50.22296027 12.4375 50.25 C11.27541016 50.270625 10.11332031 50.29125 8.91601562 50.3125 C7.2540918 50.32023437 7.2540918 50.32023437 5.55859375 50.328125 C4.03190063 50.34214355 4.03190063 50.34214355 2.47436523 50.35644531 C1.65782471 50.23881836 0.84128418 50.12119141 0 50 C-2.05755575 46.91366637 -2.25134082 46.26369717 -2.25878906 42.77563477 C-2.26509338 41.92787979 -2.27139771 41.08012482 -2.27789307 40.2066803 C-2.2738446 39.29413986 -2.26979614 38.38159943 -2.265625 37.44140625 C-2.26753845 36.50070786 -2.2694519 35.56000946 -2.27142334 34.59080505 C-2.27278443 32.60114271 -2.26909327 30.61147146 -2.26074219 28.62182617 C-2.25005358 25.5777588 -2.26063393 22.53428321 -2.2734375 19.49023438 C-2.27211566 17.55729036 -2.26955275 15.62434672 -2.265625 13.69140625 C-2.26967346 12.78089005 -2.27372192 11.87037384 -2.27789307 10.93226624 C-2.27158875 10.0813591 -2.26528442 9.23045197 -2.25878906 8.35375977 C-2.25640228 7.23482079 -2.25640228 7.23482079 -2.25396729 6.09327698 C-1.96480123 3.70988086 -1.18096517 2.07412549 0 0 Z M11 13 C11 21.25 11 29.5 11 38 C19.43420007 38.42983216 19.43420007 38.42983216 26 35 C29.11552834 30.07545521 29.47975594 26.05398886 28.61328125 20.3125 C27.58215513 16.42443208 26.48213929 15.04831723 23 13 C19.04 13 15.08 13 11 13 Z " fill="#2C2763" transform="translate(1282,327)"/>
<path d="M0 0 C4.95641493 4.03956895 8.16391734 8.11674055 9.1340332 14.57763672 C9.77974071 23.65821635 10.02188901 33.21500373 3.8203125 40.48828125 C-2.63493942 46.05909474 -8.1829157 47.84782382 -16.59375 47.6875 C-23.19362584 47.17905035 -26.99707162 45.05000881 -31.5546875 40.23828125 C-37.73331114 32.6785535 -37.90371303 24.95807547 -37.1796875 15.48828125 C-36.00277322 8.92129736 -33.15929866 3.93608928 -28.1796875 -0.51171875 C-19.08377389 -6.08064545 -8.78445907 -6.09244742 0 0 Z M-23.1796875 13.48828125 C-25.14422884 19.38190526 -25.17202618 25.46816323 -22.4296875 31.05078125 C-19.75269127 34.04790697 -19.75269127 34.04790697 -16.1796875 35.48828125 C-11.84078133 35.48828125 -9.73593113 34.90250523 -6.2421875 32.30078125 C-3.09920496 28.0338182 -3.61879948 22.91041354 -3.61328125 17.828125 C-4.27149234 13.94694925 -5.44857896 12.27043854 -8.1796875 9.48828125 C-14.45598855 6.35013073 -19.17051939 8.26421371 -23.1796875 13.48828125 Z " fill="#2C2763" transform="translate(1245.1796875,330.51171875)"/>
<path d="M0 0 C2.61289228 -0.27949467 4.98579436 -0.37228548 7.59765625 -0.328125 C8.72185219 -0.32531525 8.72185219 -0.32531525 9.86875916 -0.32244873 C11.45332283 -0.31572368 13.03786977 -0.3018001 14.62231445 -0.28125 C17.05630805 -0.2500793 19.48965469 -0.24027901 21.92382812 -0.234375 C23.46094545 -0.22520589 24.99805615 -0.21483041 26.53515625 -0.203125 C27.6335659 -0.19675018 27.6335659 -0.19675018 28.75416565 -0.19024658 C33.88284127 -0.11715873 33.88284127 -0.11715873 35 1 C35.09823937 2.66429051 35.12973631 4.33281931 35.125 6 C35.12886719 7.36125 35.12886719 7.36125 35.1328125 8.75 C35 11 35 11 34 12 C32.29227642 12.08713831 30.58101351 12.10700007 28.87109375 12.09765625 C27.31938477 12.09282227 27.31938477 12.09282227 25.73632812 12.08789062 C24.64771484 12.07951172 23.55910156 12.07113281 22.4375 12.0625 C20.7987793 12.05573242 20.7987793 12.05573242 19.12695312 12.04882812 C16.41791505 12.03699826 13.70898401 12.02051543 11 12 C11 14.64 11 17.28 11 20 C17.93 20 24.86 20 32 20 C32 23.3 32 26.6 32 30 C29.65147472 31.17426264 28.26225935 31.11508173 25.6484375 31.09765625 C24.79765625 31.09443359 23.946875 31.09121094 23.0703125 31.08789062 C21.73613281 31.07532227 21.73613281 31.07532227 20.375 31.0625 C19.4778125 31.05798828 18.580625 31.05347656 17.65625 31.04882812 C15.43743352 31.03702591 13.21874982 31.02056155 11 31 C11 33.31 11 35.62 11 38 C11.65597168 37.99476318 12.31194336 37.98952637 12.98779297 37.98413086 C15.95018563 37.96338728 18.91256303 37.95034824 21.875 37.9375 C23.42380859 37.92493164 23.42380859 37.92493164 25.00390625 37.91210938 C25.99003906 37.90888672 26.97617187 37.90566406 27.9921875 37.90234375 C28.90339355 37.89710693 29.81459961 37.89187012 30.75341797 37.88647461 C33 38 33 38 35 39 C35.02688151 40.64574566 35.04634123 42.29161413 35.0625 43.9375 C35.07410156 44.85402344 35.08570313 45.77054687 35.09765625 46.71484375 C35 49 35 49 34 50 C31.50248838 50.12564659 29.03408835 50.188622 26.53515625 50.203125 C25.4123954 50.21167511 25.4123954 50.21167511 24.26695251 50.22039795 C22.68066833 50.22986035 21.09436438 50.23638684 19.50805664 50.24023438 C17.07598761 50.24994614 14.64476129 50.28095887 12.21289062 50.3125 C10.67448421 50.31902915 9.13607172 50.32427997 7.59765625 50.328125 C6.86740738 50.3404718 6.13715851 50.3528186 5.38478088 50.36553955 C3.33227539 50.35644531 3.33227539 50.35644531 0 50 C-2.07518789 46.88721817 -2.25145186 46.19985616 -2.25878906 42.66796875 C-2.26509338 41.79696533 -2.27139771 40.92596191 -2.27789307 40.02856445 C-2.2738446 39.09101318 -2.26979614 38.15346191 -2.265625 37.1875 C-2.26753845 36.22223389 -2.2694519 35.25696777 -2.27142334 34.26245117 C-2.2727844 32.22151428 -2.26909345 30.1805687 -2.26074219 28.13964844 C-2.25004165 25.01217234 -2.26064022 21.88527069 -2.2734375 18.7578125 C-2.27211589 16.7760404 -2.26955347 14.79426865 -2.265625 12.8125 C-2.26967346 11.87494873 -2.27372192 10.93739746 -2.27789307 9.97143555 C-2.27158875 9.10043213 -2.26528442 8.22942871 -2.25878906 7.33203125 C-2.25719788 6.56608643 -2.25560669 5.8001416 -2.25396729 5.01098633 C-2 3 -2 3 0 0 Z " fill="#2C2763" transform="translate(592,327)"/>
<path d="M0 0 C0.85546875 1.90234375 0.85546875 1.90234375 1 4 C0.00390625 5.921875 0.00390625 5.921875 -1.4375 7.75 C-1.91058594 8.36359375 -2.38367188 8.9771875 -2.87109375 9.609375 C-3.24363281 10.06828125 -3.61617187 10.5271875 -4 11 C-6.78461612 10.57159752 -9.53176571 10.12049553 -12.26171875 9.41796875 C-13.04160156 9.21816406 -13.82148437 9.01835937 -14.625 8.8125 C-15.35976563 8.61269531 -16.09453125 8.41289062 -16.8515625 8.20703125 C-19.49135253 7.95265148 -20.7676156 8.64137692 -23 10 C-23 10.66 -23 11.32 -23 12 C-22.38253906 12.18175781 -21.76507812 12.36351562 -21.12890625 12.55078125 C-19.35221661 13.07810922 -17.57759477 13.61243573 -15.8046875 14.15234375 C-14.04466642 14.68427213 -12.27954066 15.19987665 -10.5078125 15.69140625 C-4.62466142 17.42465783 -1.34563444 19.76079053 2.3125 24.8125 C3.84954031 29.70308279 3.71950214 34.19578972 1.4375 38.75 C-1.27733001 42.98165674 -5.08080278 45.09004103 -9.8671875 46.58203125 C-18.45467777 48.2649277 -26.34672884 47.19416555 -34 43 C-36.6875 41.0625 -36.6875 41.0625 -38 39 C-38.09766173 35.19119238 -37.02188638 34.02402164 -34.4375 31.1875 C-33.633125 30.465625 -32.82875 29.74375 -32 29 C-31.360625 29.268125 -30.72125 29.53625 -30.0625 29.8125 C-29.051875 30.204375 -28.04125 30.59625 -27 31 C-26.29875 31.27585937 -25.5975 31.55171875 -24.875 31.8359375 C-20.18256278 33.5638958 -16.98350359 34.40560358 -12 33 C-11.67 32.01 -11.34 31.02 -11 30 C-11.54938232 29.84442627 -12.09876465 29.68885254 -12.66479492 29.52856445 C-15.1775372 28.80666433 -17.68222385 28.05987997 -20.1875 27.3125 C-21.05181641 27.06822266 -21.91613281 26.82394531 -22.80664062 26.57226562 C-29.0123676 24.69390382 -32.89023554 22.45234184 -36.375 16.75 C-37.52204879 11.70298534 -36.78458341 6.96145851 -34.875 2.1875 C-26.32496155 -7.78754486 -10.19277643 -6.8605226 0 0 Z " fill="#2C2763" transform="translate(792,331)"/>
<path d="M0 0 C0.72726791 -0.00095673 1.45453583 -0.00191345 2.20384216 -0.00289917 C3.74128303 -0.00357985 5.27872676 -0.00173335 6.81616211 0.00244141 C9.17763675 0.00779899 11.53892186 0.00248873 13.90039062 -0.00390625 C15.39192751 -0.0032456 16.88346427 -0.00196471 18.375 0 C19.08539932 -0.00202423 19.79579865 -0.00404846 20.52772522 -0.00613403 C25.50613661 0.01785536 25.50613661 0.01785536 26.62109375 1.1328125 C26.71933312 2.79710301 26.75083006 4.46563181 26.74609375 6.1328125 C26.74996094 7.4940625 26.74996094 7.4940625 26.75390625 8.8828125 C26.62109375 11.1328125 26.62109375 11.1328125 25.62109375 12.1328125 C23.98636493 12.21981592 22.3479532 12.23982313 20.7109375 12.23046875 C19.72158203 12.22724609 18.73222656 12.22402344 17.71289062 12.22070312 C16.67197266 12.21232422 15.63105469 12.20394531 14.55859375 12.1953125 C13.51380859 12.19080078 12.46902344 12.18628906 11.39257812 12.18164062 C8.80202715 12.16981163 6.21158816 12.15332939 3.62109375 12.1328125 C3.62109375 14.7728125 3.62109375 17.4128125 3.62109375 20.1328125 C10.22109375 20.1328125 16.82109375 20.1328125 23.62109375 20.1328125 C23.62109375 23.4328125 23.62109375 26.7328125 23.62109375 30.1328125 C21.32455675 31.281081 20.03796208 31.24842425 17.48828125 31.23046875 C16.68261719 31.22724609 15.87695312 31.22402344 15.046875 31.22070312 C14.20511719 31.21232422 13.36335938 31.20394531 12.49609375 31.1953125 C11.64660156 31.19080078 10.79710937 31.18628906 9.921875 31.18164062 C7.82158466 31.16984124 5.72133045 31.15190556 3.62109375 31.1328125 C3.62109375 33.4428125 3.62109375 35.7528125 3.62109375 38.1328125 C4.24677246 38.12757568 4.87245117 38.12233887 5.51708984 38.11694336 C8.34341432 38.09619632 11.1697228 38.08315964 13.99609375 38.0703125 C14.9809375 38.06193359 15.96578125 38.05355469 16.98046875 38.04492188 C18.39199219 38.04008789 18.39199219 38.04008789 19.83203125 38.03515625 C20.70134277 38.02991943 21.5706543 38.02468262 22.46630859 38.01928711 C24.62109375 38.1328125 24.62109375 38.1328125 26.62109375 39.1328125 C26.62109375 42.7628125 26.62109375 46.3928125 26.62109375 50.1328125 C21.65487026 50.15746348 16.68868209 50.17564899 11.72241211 50.18774414 C10.03165059 50.1927844 8.34089346 50.19961655 6.65014648 50.20825195 C4.22508668 50.22033107 1.80008431 50.22604373 -0.625 50.23046875 C-1.76563148 50.23821068 -1.76563148 50.23821068 -2.92930603 50.24610901 C-4.74623195 50.24630488 -6.56303752 50.19478527 -8.37890625 50.1328125 C-9.37890625 49.1328125 -9.37890625 49.1328125 -9.49916077 47.19029236 C-9.49694016 46.33979813 -9.49471954 45.48930389 -9.49243164 44.61303711 C-9.49235611 43.65211655 -9.49228058 42.69119598 -9.49220276 41.70115662 C-9.48704147 40.6563765 -9.48188019 39.61159637 -9.4765625 38.53515625 C-9.47514755 37.47116104 -9.4737326 36.40716583 -9.47227478 35.31092834 C-9.46665689 31.89736167 -9.45410136 28.4838595 -9.44140625 25.0703125 C-9.43639356 22.76237074 -9.43183025 20.45442795 -9.42773438 18.14648438 C-9.41668165 12.47523824 -9.39992612 6.80402997 -9.37890625 1.1328125 C-6.3773777 -0.36795177 -3.29070615 -0.00940342 0 0 Z " fill="#2C2763" transform="translate(1359.37890625,326.8671875)"/>
<path d="M0 0 C1.51400391 0.01740234 1.51400391 0.01740234 3.05859375 0.03515625 C4.07050781 0.04417969 5.08242187 0.05320312 6.125 0.0625 C7.29869141 0.07990234 7.29869141 0.07990234 8.49609375 0.09765625 C10.08196275 3.26939425 9.8747582 6.73279447 10.05859375 10.22265625 C10.10177734 10.97675781 10.14496094 11.73085938 10.18945312 12.5078125 C10.29557695 14.37087513 10.39634376 16.23424149 10.49609375 18.09765625 C11.15609375 18.09765625 11.81609375 18.09765625 12.49609375 18.09765625 C12.7590625 17.50597656 13.02203125 16.91429687 13.29296875 16.3046875 C14.54986771 13.99901247 15.84377999 12.58035775 17.74609375 10.78515625 C21.24159562 7.39957582 24.37386843 3.82909627 27.49609375 0.09765625 C31.89723772 0.60064413 34.20804394 2.18538356 37.49609375 5.09765625 C37.37693994 9.02973205 36.03139117 10.79531115 33.30859375 13.41015625 C32.6846875 13.99539063 32.06078125 14.580625 31.41796875 15.18359375 C28.39203467 18.19722729 25.96113111 21.62132151 23.49609375 25.09765625 C24.49189453 26.18433594 24.49189453 26.18433594 25.5078125 27.29296875 C27.32191846 29.27921615 29.13115446 31.26888385 30.93359375 33.265625 C32.37914411 34.86322258 33.83196539 36.45451987 35.30859375 38.0234375 C38.45909642 41.48720038 38.45909642 41.48720038 38.62109375 44.16015625 C36.94167857 47.05248239 35.0836157 48.98059284 32.49609375 51.09765625 C30.09765625 51.55078125 30.09765625 51.55078125 27.49609375 51.09765625 C25.28515625 48.97265625 25.28515625 48.97265625 23.12109375 46.09765625 C22.34894531 45.09992188 21.57679687 44.1021875 20.78125 43.07421875 C20.02714844 42.09195313 19.27304688 41.1096875 18.49609375 40.09765625 C17.1989507 38.54304624 15.88832393 36.99948631 14.55859375 35.47265625 C14.01332031 34.84101563 13.46804688 34.209375 12.90625 33.55859375 C11.53995923 31.98085769 11.53995923 31.98085769 9.49609375 31.09765625 C9.50769531 32.38542969 9.51929688 33.67320312 9.53125 35 C9.54062645 36.67838397 9.5497268 38.35676951 9.55859375 40.03515625 C9.56697266 40.88529297 9.57535156 41.73542969 9.58398438 42.61132812 C9.58720703 43.42021484 9.59042969 44.22910156 9.59375 45.0625 C9.59898682 45.81136475 9.60422363 46.56022949 9.60961914 47.33178711 C9.49609375 49.09765625 9.49609375 49.09765625 8.49609375 50.09765625 C6.66493492 50.19616796 4.82989442 50.22738254 2.99609375 50.22265625 C1.99578125 50.22523438 0.99546875 50.2278125 -0.03515625 50.23046875 C-2.50390625 50.09765625 -2.50390625 50.09765625 -3.50390625 49.09765625 C-3.60221771 47.59895577 -3.63189081 46.09567086 -3.63330078 44.59375 C-3.63645294 43.63605713 -3.6396051 42.67836426 -3.64285278 41.69165039 C-3.64082855 40.65000732 -3.63880432 39.60836426 -3.63671875 38.53515625 C-3.63767548 37.47353271 -3.6386322 36.41190918 -3.63961792 35.31811523 C-3.64029989 33.06852153 -3.63844444 30.81892588 -3.63427734 28.56933594 C-3.62892935 25.11258554 -3.63422179 21.65596508 -3.640625 18.19921875 C-3.63996422 16.01953096 -3.63868307 13.83984325 -3.63671875 11.66015625 C-3.63874298 10.61851318 -3.64076721 9.57687012 -3.64285278 8.50366211 C-3.63970062 7.54596924 -3.63654846 6.58827637 -3.63330078 5.6015625 C-3.63250519 4.75408447 -3.63170959 3.90660645 -3.63088989 3.03344727 C-3.43589483 0.06086208 -2.99147635 0.11667224 0 0 Z " fill="#2C2763" transform="translate(1045.50390625,326.90234375)"/>
<path d="M0 0 C2.59009554 -0.24950462 4.9187129 -0.32719737 7.5 -0.25 C8.18964844 -0.24484375 8.87929688 -0.2396875 9.58984375 -0.234375 C14.69032948 -0.15483526 14.69032948 -0.15483526 17 1 C17.80996704 2.68109131 17.80996704 2.68109131 18.60400391 4.88964844 C18.90416412 5.71430603 19.20432434 6.53896362 19.51358032 7.38861084 C19.83136444 8.28646301 20.14914856 9.18431519 20.4765625 10.109375 C20.80667328 11.02833557 21.13678406 11.94729614 21.47689819 12.894104 C22.17473394 14.84315237 22.86885257 16.79353494 23.55957031 18.74511719 C24.61700952 21.72746406 25.69044176 24.70369866 26.765625 27.6796875 C27.44108142 29.57256823 28.11559157 31.46578694 28.7890625 33.359375 C29.11089508 34.24913025 29.43272766 35.1388855 29.76431274 36.05560303 C30.05816864 36.89286926 30.35202454 37.7301355 30.65478516 38.59277344 C30.91522614 39.32477966 31.17566711 40.05678589 31.44400024 40.81097412 C32.07015091 43.27619104 32.09575005 45.46656825 32 48 C30.56656 48.53190541 29.12804633 49.05015258 27.6875 49.5625 C26.48673828 49.99755859 26.48673828 49.99755859 25.26171875 50.44140625 C23 51 23 51 20 50 C18.3364652 46.43369295 17.2468184 42.74045519 16 39 C10.39 38.67 4.78 38.34 -1 38 C-1.4125 39.77375 -1.825 41.5475 -2.25 43.375 C-3.46182406 48.58584346 -3.46182406 48.58584346 -5.84765625 50.421875 C-8.46745023 51.12555832 -9.67401516 50.84644067 -12.1875 49.875 C-13.22970703 49.49988281 -13.22970703 49.49988281 -14.29296875 49.1171875 C-16 48 -16 48 -16.68367004 46.19081116 C-17.05545558 43.61593042 -16.66655952 42.25935783 -15.76831055 39.82983398 C-15.47437912 39.01896835 -15.18044769 38.20810272 -14.87760925 37.37266541 C-14.55061539 36.50589676 -14.22362152 35.63912811 -13.88671875 34.74609375 C-13.55710648 33.84883072 -13.2274942 32.95156769 -12.88789368 32.02711487 C-12.18921797 30.13151034 -11.48532165 28.23782304 -10.77661133 26.34594727 C-9.69178631 23.44894648 -8.62286859 20.54646833 -7.55664062 17.64257812 C-6.8759249 15.80174105 -6.19431415 13.96123465 -5.51171875 12.12109375 C-5.03033699 10.81790443 -5.03033699 10.81790443 -4.53923035 9.48838806 C-4.23584244 8.68067459 -3.93245453 7.87296112 -3.61987305 7.04077148 C-3.35482468 6.33113754 -3.08977631 5.6215036 -2.81669617 4.8903656 C-2 3 -2 3 0 0 Z M7 14 C6.32942113 15.7902061 5.6636531 17.58221489 5 19.375 C4.62875 20.37273437 4.2575 21.37046875 3.875 22.3984375 C2.89373723 24.85848061 2.89373723 24.85848061 3 27 C5.97 27 8.94 27 12 27 C11.71125 25.5975 11.4225 24.195 11.125 22.75 C10.96257813 21.96109375 10.80015625 21.1721875 10.6328125 20.359375 C10.00849925 18.03168856 9.15161458 16.10968048 8 14 C7.67 14 7.34 14 7 14 Z " fill="#2C2763" transform="translate(927,327)"/>
<path d="M0 0 C3.9572166 3.34443865 6.58851495 6.46378916 7.9375 11.5 C7.958125 12.325 7.97875 13.15 8 14 C6.5682384 14.69937202 5.12932968 15.38412718 3.6875 16.0625 C2.88699219 16.44535156 2.08648438 16.82820313 1.26171875 17.22265625 C-1 18 -1 18 -4 17 C-5.03013277 15.35178756 -6.03114628 13.68496298 -7 12 C-10.09173752 10.45413124 -12.59429552 10.70640479 -16 11 C-18.90717073 13.21863029 -19.83981643 14.51944929 -21 18 C-21.1190686 19.78879802 -21.17522113 21.5822856 -21.1875 23.375 C-21.20876953 24.77878906 -21.20876953 24.77878906 -21.23046875 26.2109375 C-20.98409242 29.19250863 -20.31132807 31.32114409 -19 34 C-16.41628303 36.10525087 -14.87112955 36 -11.5 36 C-7.00660221 34.71617206 -6.498441 32.78795893 -4 29 C0.7745974 28.06583964 3.87409245 29.64233854 8 32 C7.51878758 37.05273037 6.35229523 40.15712498 3 44 C-3.58503394 48.66337905 -10.03133513 50.24474035 -18 49 C-24.27960078 47.25728909 -28.4236971 44.57482511 -32 39 C-36.09773899 30.80452201 -36.37446446 20.95149021 -33.9375 12.1875 C-31.71739693 6.58044898 -28.19531536 1.68233918 -22.7890625 -1.1640625 C-15.05371831 -3.98891515 -7.34096304 -3.89019344 0 0 Z " fill="#2C2763" transform="translate(1177,329)"/>
<path d="M0 0 C1.29997925 0.00303635 1.29997925 0.00303635 2.6262207 0.00613403 C3.51027588 0.00517731 4.39433105 0.00422058 5.30517578 0.00323486 C7.178142 0.00255302 9.05111056 0.0044076 10.92407227 0.00857544 C13.80140458 0.01392364 16.67858078 0.0086306 19.5559082 0.00222778 C21.37101272 0.00288856 23.18611713 0.00416972 25.0012207 0.00613403 C25.86787354 0.0041098 26.73452637 0.00208557 27.62744141 0 C33.69877061 0.02399644 33.69877061 0.02399644 34.8137207 1.13894653 C34.91223241 2.97010536 34.94344699 4.80514587 34.9387207 6.63894653 C34.94258789 8.13941528 34.94258789 8.13941528 34.9465332 9.67019653 C34.8137207 12.13894653 34.8137207 12.13894653 33.8137207 13.13894653 C31.62732617 13.21153599 29.43871681 13.22268436 27.2512207 13.20144653 C25.45491211 13.18791138 25.45491211 13.18791138 23.62231445 13.17410278 C22.69547852 13.16250122 21.76864258 13.15089966 20.8137207 13.13894653 C20.82157593 14.71361694 20.82157593 14.71361694 20.82958984 16.32009888 C20.84766309 20.20762279 20.85916125 24.09514297 20.86865234 27.98269653 C20.87368723 29.66662215 20.88051551 31.35054339 20.88916016 33.03445435 C20.90126267 35.45210857 20.90695738 37.86970509 20.91137695 40.28738403 C20.91653824 41.04264374 20.92169952 41.79790344 20.92701721 42.5760498 C20.92759241 47.91120312 20.92759241 47.91120312 19.8137207 50.13894653 C18.00130019 50.16581933 16.18876837 50.18528369 14.3762207 50.20144653 C13.36688477 50.2130481 12.35754883 50.22464966 11.31762695 50.23660278 C8.8137207 50.13894653 8.8137207 50.13894653 7.8137207 49.13894653 C7.7251691 46.47268623 7.69847397 43.83247539 7.71606445 41.16629028 C7.7174794 40.36864761 7.71889435 39.57100494 7.72035217 38.74919128 C7.72596754 36.19157218 7.73852258 33.63403936 7.7512207 31.07644653 C7.75623373 29.34663009 7.76079698 27.61681227 7.76489258 25.88699341 C7.77594196 21.637611 7.79321684 17.38829342 7.8137207 13.13894653 C6.44086914 13.15634888 6.44086914 13.15634888 5.0402832 13.17410278 C3.25750977 13.18763794 3.25750977 13.18763794 1.4387207 13.20144653 C0.25536133 13.2130481 -0.92799805 13.22464966 -2.1472168 13.23660278 C-5.1862793 13.13894653 -5.1862793 13.13894653 -7.1862793 12.13894653 C-7.21315209 10.32652602 -7.23261645 8.5139942 -7.2487793 6.70144653 C-7.26038086 5.6921106 -7.27198242 4.68277466 -7.28393555 3.64285278 C-7.09367238 -1.23549479 -4.19328409 0.01657362 0 0 Z " fill="#2C2763" transform="translate(860.186279296875,326.8610534667969)"/>
<path d="M0 0 C1.29997925 0.00303635 1.29997925 0.00303635 2.6262207 0.00613403 C3.51027588 0.00517731 4.39433105 0.00422058 5.30517578 0.00323486 C7.178142 0.00255302 9.05111056 0.0044076 10.92407227 0.00857544 C13.80140458 0.01392364 16.67858078 0.0086306 19.5559082 0.00222778 C21.37101272 0.00288856 23.18611713 0.00416972 25.0012207 0.00613403 C25.86787354 0.0041098 26.73452637 0.00208557 27.62744141 0 C33.69877061 0.02399644 33.69877061 0.02399644 34.8137207 1.13894653 C34.88598572 2.99182155 34.8975329 4.84728531 34.8762207 6.70144653 C34.86719727 7.7133606 34.85817383 8.72527466 34.84887695 9.76785278 C34.83727539 10.55031372 34.82567383 11.33277466 34.8137207 12.13894653 C30.33165769 14.37997804 24.8248195 13.13894653 19.8137207 13.13894653 C19.8137207 25.34894653 19.8137207 37.55894653 19.8137207 50.13894653 C15.8537207 50.13894653 11.8937207 50.13894653 7.8137207 50.13894653 C7.8137207 37.92894653 7.8137207 25.71894653 7.8137207 13.13894653 C3.5237207 13.13894653 -0.7662793 13.13894653 -5.1862793 13.13894653 C-5.8462793 12.80894653 -6.5062793 12.47894653 -7.1862793 12.13894653 C-7.21315209 10.32652602 -7.23261645 8.5139942 -7.2487793 6.70144653 C-7.26038086 5.6921106 -7.27198242 4.68277466 -7.28393555 3.64285278 C-7.09367238 -1.23549479 -4.19328409 0.01657362 0 0 Z " fill="#2C2763" transform="translate(657.186279296875,326.8610534667969)"/>
<path d="M0 0 C1.51400391 0.01740234 1.51400391 0.01740234 3.05859375 0.03515625 C4.07050781 0.04417969 5.08242188 0.05320312 6.125 0.0625 C7.29869141 0.07990234 7.29869141 0.07990234 8.49609375 0.09765625 C10.08254732 3.27056338 9.61687588 6.68591009 9.59375 10.16796875 C9.59233505 10.96419647 9.5909201 11.76042419 9.58946228 12.58078003 C9.5838572 15.12811005 9.57130389 17.67535272 9.55859375 20.22265625 C9.5535794 21.9479154 9.54901638 23.67317592 9.54492188 25.3984375 C9.53473628 29.63157129 9.51516195 33.86451579 9.49609375 38.09765625 C16.75609375 38.09765625 24.01609375 38.09765625 31.49609375 38.09765625 C31.49609375 42.05765625 31.49609375 46.01765625 31.49609375 50.09765625 C26.67228573 50.12230815 21.84851408 50.14049318 17.0246582 50.15258789 C15.38239911 50.15762799 13.74014452 50.16446003 12.09790039 50.1730957 C9.74233896 50.18517551 7.38683666 50.19088764 5.03125 50.1953125 C4.29270279 50.20047379 3.55415558 50.20563507 2.79322815 50.21095276 C1.02711287 50.21114875 -0.73887771 50.15960344 -2.50390625 50.09765625 C-4.10442289 48.49713961 -3.63122097 46.80919503 -3.63330078 44.59375 C-3.63645294 43.63605713 -3.6396051 42.67836426 -3.64285278 41.69165039 C-3.64082855 40.65000732 -3.63880432 39.60836426 -3.63671875 38.53515625 C-3.63767548 37.47353271 -3.6386322 36.41190918 -3.63961792 35.31811523 C-3.64029989 33.06852153 -3.63844444 30.81892588 -3.63427734 28.56933594 C-3.62892935 25.11258554 -3.63422179 21.65596508 -3.640625 18.19921875 C-3.63996422 16.01953096 -3.63868307 13.83984325 -3.63671875 11.66015625 C-3.63874298 10.61851318 -3.64076721 9.57687012 -3.64285278 8.50366211 C-3.63970062 7.54596924 -3.63654846 6.58827637 -3.63330078 5.6015625 C-3.63250519 4.75408447 -3.63170959 3.90660645 -3.63088989 3.03344727 C-3.43589483 0.06086208 -2.99147635 0.11667224 0 0 Z " fill="#2C2763" transform="translate(534.50390625,326.90234375)"/>
<path d="M0 0 C0.9075 0.00257813 1.815 0.00515625 2.75 0.0078125 C4.11125 0.00394531 4.11125 0.00394531 5.5 0 C7.75 0.1328125 7.75 0.1328125 8.75 1.1328125 C8.83858646 3.87175335 8.86523479 6.5853452 8.84765625 9.32421875 C8.8462413 10.14405746 8.84482635 10.96389618 8.84336853 11.80857849 C8.83775289 14.43752632 8.82519779 17.06639023 8.8125 19.6953125 C8.80748701 21.47330607 8.80292376 23.25130096 8.79882812 25.02929688 C8.78777839 29.39716795 8.77050331 33.76497598 8.75 38.1328125 C9.4112085 38.12757568 10.07241699 38.12233887 10.75366211 38.11694336 C13.73159851 38.09623594 16.70951982 38.08317238 19.6875 38.0703125 C20.72841797 38.06193359 21.76933594 38.05355469 22.84179688 38.04492188 C23.83115234 38.04169922 24.82050781 38.03847656 25.83984375 38.03515625 C26.75628662 38.02991943 27.67272949 38.02468262 28.61694336 38.01928711 C30.75 38.1328125 30.75 38.1328125 31.75 39.1328125 C31.84823937 40.79710301 31.87973631 42.46563181 31.875 44.1328125 C31.87886719 45.4940625 31.87886719 45.4940625 31.8828125 46.8828125 C31.75 49.1328125 31.75 49.1328125 30.75 50.1328125 C28.22905924 50.22128993 25.73569107 50.24808551 23.21484375 50.23046875 C22.08496788 50.22834633 22.08496788 50.22834633 20.93226624 50.22618103 C18.5173044 50.22056626 16.10243399 50.20801133 13.6875 50.1953125 C12.05403779 50.1902994 10.42057414 50.18573616 8.78710938 50.18164062 C4.77470415 50.17059204 0.76236759 50.15331756 -3.25 50.1328125 C-3.27526838 43.17277803 -3.29283222 36.2127553 -3.30493164 29.25268555 C-3.30997341 26.88288938 -3.31680665 24.51309635 -3.32543945 22.14331055 C-3.3375119 18.74527211 -3.34322971 15.34727465 -3.34765625 11.94921875 C-3.35281754 10.88256485 -3.35797882 9.81591095 -3.36329651 8.7169342 C-3.36337204 7.73599289 -3.36344757 6.75505157 -3.36352539 5.74438477 C-3.365746 4.87612564 -3.36796661 4.00786652 -3.37025452 3.11329651 C-3.19681171 0.25684903 -2.85838555 0.16872415 0 0 Z " fill="#2C2763" transform="translate(986.25,326.8671875)"/>
<path d="M0 0 C1.23556641 0.01740234 1.23556641 0.01740234 2.49609375 0.03515625 C3.32238281 0.04417969 4.14867187 0.05320312 5 0.0625 C5.63808594 0.07410156 6.27617188 0.08570313 6.93359375 0.09765625 C8.96767655 6.19990465 8.21412091 12.16828564 5.93359375 18.09765625 C3.80859375 20.53515625 3.80859375 20.53515625 1.93359375 22.09765625 C-0.98157917 21.02364517 -2.84450801 20.31955449 -5.06640625 18.09765625 C-4.91095911 15.18522202 -4.64660658 12.41574252 -4.25390625 9.53515625 C-4.10985352 8.3450293 -4.10985352 8.3450293 -3.96289062 7.13085938 C-3.07403326 0.14527567 -3.07403326 0.14527567 0 0 Z " fill="#2C2763" transform="translate(723.06640625,326.90234375)"/>
</svg>
