<?xml version="1.0" encoding="UTF-8"?><svg id="Livello_1" xmlns="http://www.w3.org/2000/svg" viewBox="0 0 1080 698.93"><defs><style>.cls-1{fill:#fff;}</style></defs><path class="cls-1" d="M402.89,236.29c4.01-7.52,9.71-13.37,17.09-17.57,7.38-4.2,15.86-6.3,25.46-6.3,12.18,0,22.42,3.25,30.72,9.75,8.3,6.5,13.65,15.34,16.05,26.5h-29.19c-1.75-3.69-4.18-6.5-7.26-8.44-3.09-1.94-6.66-2.91-10.72-2.91-6.27,0-11.28,2.24-15.01,6.71-3.74,4.47-5.61,10.45-5.61,17.92s1.87,13.58,5.61,18.06c3.74,4.48,8.74,6.71,15.01,6.71,4.06,0,7.63-.97,10.72-2.91,3.09-1.94,5.51-4.75,7.26-8.44h29.19c-2.4,11.16-7.75,19.99-16.05,26.5-8.3,6.5-18.54,9.76-30.72,9.76-9.6,0-18.08-2.1-25.46-6.3-7.38-4.2-13.08-10.05-17.09-17.57-4.01-7.52-6.02-16.12-6.02-25.8s2.01-18.15,6.02-25.67Z"/><path class="cls-1" d="M533.57,290.19h30.3v20.76h-57.42v-97.55h27.12v76.79Z"/><path class="cls-1" d="M597.36,305.48c-7.66-4.29-13.72-10.24-18.19-17.85-4.48-7.61-6.71-16.21-6.71-25.8s2.24-18.19,6.71-25.8c4.47-7.61,10.54-13.54,18.19-17.78,7.66-4.24,16.05-6.37,25.18-6.37s17.64,2.12,25.25,6.37c7.61,4.24,13.63,10.17,18.06,17.78,4.43,7.61,6.64,16.21,6.64,25.8s-2.21,18.19-6.64,25.8c-4.43,7.61-10.47,13.56-18.13,17.85-7.66,4.29-16.05,6.43-25.18,6.43s-17.53-2.15-25.18-6.43ZM638.94,279.95c4.01-4.52,6.02-10.56,6.02-18.13s-2.01-13.86-6.02-18.33c-4.01-4.47-9.48-6.71-16.4-6.71s-12.5,2.24-16.47,6.71c-3.97,4.48-5.95,10.58-5.95,18.33s1.98,13.72,5.95,18.19c3.97,4.48,9.46,6.71,16.47,6.71s12.38-2.26,16.4-6.78Z"/><path class="cls-1" d="M712.61,213.39v56.59c0,5.26,1.22,9.32,3.67,12.18,2.44,2.86,6.16,4.29,11.14,4.29s8.74-1.45,11.28-4.36c2.54-2.91,3.81-6.94,3.81-12.11v-56.59h27.12v56.59c0,8.95-1.89,16.58-5.67,22.9-3.78,6.32-8.92,11.07-15.43,14.25-6.5,3.18-13.72,4.77-21.65,4.77s-15.01-1.59-21.24-4.77c-6.23-3.18-11.12-7.91-14.67-14.18-3.55-6.27-5.33-13.93-5.33-22.97v-56.59h26.98Z"/><path class="cls-1" d="M851.46,219.55c7.7,4.11,13.63,9.85,17.78,17.23,4.15,7.38,6.23,15.82,6.23,25.32s-2.1,17.8-6.3,25.18c-4.2,7.38-10.15,13.17-17.85,17.36-7.7,4.2-16.63,6.3-26.77,6.3h-38.6v-97.55h38.6c10.24,0,19.21,2.06,26.91,6.16ZM841.15,280.5c4.52-4.33,6.78-10.47,6.78-18.4s-2.26-14.23-6.78-18.61c-4.52-4.38-10.75-6.57-18.68-6.57h-9.41v50.09h9.41c7.93,0,14.16-2.17,18.68-6.5Z"/><path class="cls-1" d="M483.27,415.14h-25.11l-33.44-50.48v50.48h-25.11v-90.32h25.11l33.44,51.12v-51.12h25.11v90.32Z"/><path class="cls-1" d="M556.04,400.41h-32.03l-4.87,14.73h-26.39l32.92-90.32h28.95l32.8,90.32h-26.52l-4.87-14.73ZM549.77,381.19l-9.74-29.21-9.61,29.21h19.35Z"/><path class="cls-1" d="M664.94,324.82v19.99h-24.09v70.33h-25.11v-70.33h-23.83v-19.99h73.03Z"/><path class="cls-1" d="M700.68,324.82v90.32h-25.11v-90.32h25.11Z"/><path class="cls-1" d="M838.41,344.93v14.73h28.83v19.09h-28.83v16.27h32.67v20.11h-57.78v-90.32h57.78v20.11h-32.67Z"/><path class="cls-1" d="M761.14,360.45l-7.37,4.2-23.18,13.19c21.13,12.37,42.29,24.75,63.77,37.31.14-24.81.28-49.29.42-73.85l-33.64,19.15ZM760.24,385.03c-3.99-.04-7.16-3.22-7.18-7.22-.01-4.01,3.13-7.23,7.11-7.29,4.07-.06,7.33,3.13,7.35,7.21.02,4.09-3.21,7.33-7.28,7.3ZM786.29,393.43c-.77,1.99-1.73,3.93-2.82,5.76-.27.45-1.43.69-2.04.52-.59-.16-1.01-.95-1.68-1.66,1.26-2.3,2.36-4.47,3.66-6.49.23-.35,1.57-.38,2.08-.05.51.32.99,1.43.8,1.92ZM783.73,384.84c-4.14-.02-7.46-3.38-7.38-7.46.09-4.05,3.38-7.3,7.4-7.29,4.02,0,7.33,3.29,7.36,7.3.03,4.13-3.28,7.46-7.38,7.45Z"/><path class="cls-1" d="M794.85,324.62c-.01,4.24-.03,8.3-.05,12.44l-67.86,38.64c-3.53-2.06-10.73-6.27-10.73-6.27l78.64-44.81Z"/><path class="cls-1" d="M304.85,487.06c-11.78,0-22.76-4.65-30.79-13.21-9.04-9.64-12.99-22.65-11.02-36.04-6.36-1.29-11.91-4.9-15.56-10.22-4.06-5.92-5.33-13.26-3.58-20.39-.09-.04-.17-.09-.26-.13-27.47-14.35-42.25-42.13-38.57-72.5,3.64-30.08,24.3-53.36,53.98-60.9-.08-.54-.15-1.11-.19-1.71-.97-14,4.42-27.33,14.77-36.56,10.27-9.16,24.01-12.96,37.67-10.42,18.48,3.43,32.77,18.34,35.57,37.12l.07.93c.41,37.42.35,75.48.29,112.29-.04,23.53-.08,47.87,0,71.78v.25s-.02.25-.02.25c-1.34,19.61-16.89,36.38-36.17,39.02-2.09.29-4.17.43-6.22.43ZM275.95,427.04c3.36,3.52,1.92,8.01,1.15,10.43-.08.24-.15.45-.2.63-1.97,9.73.63,19.39,7.17,26.37,6.35,6.77,15.51,9.9,25.15,8.58,12.9-1.77,23.33-12.99,24.34-26.15-.08-23.87-.04-48.13,0-71.59.06-36.6.12-74.45-.29-111.62-2.09-12.78-11.86-22.89-24.44-25.23-9.47-1.76-18.97.86-26.05,7.18-7.17,6.39-10.89,15.64-10.22,25.38.03.5.18,1.21.34,1.96.37,1.8.84,4.05.52,6.63l-.14,1.16-.52,1.05c-1.84,3.71-5.65,4.33-9,4.88-.32.05-.61.1-.81.14-29.05,7.12-41.91,30.18-44.23,49.39-2.33,19.25,4.67,44.79,31.31,58.7.17.08.52.22.91.38,3.07,1.26,5.98,2.46,7.38,5.5,1.66,3.62.07,6.97-.69,8.58-.07.14-.13.27-.19.4-1.08,3.55-.58,7.2,1.37,10.04,1.93,2.81,4.97,4.5,8.58,4.77.11,0,.22-.02.34-.03,1.61-.15,5.38-.51,8.24,2.48h0Z"/><path class="cls-1" d="M448.13,433.34c4.53,2.31,8.04,5.62,10.51,9.94,2.47,4.32,3.71,9.35,3.71,15.11s-1.24,10.75-3.71,14.99c-2.47,4.24-5.97,7.48-10.51,9.73-4.53,2.25-9.81,3.38-15.84,3.38h-18.49v-56.6h18.49c6.03,0,11.31,1.15,15.84,3.46ZM447.52,473.54c3.53-3.58,5.29-8.63,5.29-15.15s-1.76-11.7-5.29-15.39c-3.53-3.69-8.61-5.54-15.23-5.54h-9.2v41.46h9.2c6.62,0,11.7-1.79,15.23-5.38Z"/><path class="cls-1" d="M506.49,474.92h-23.7l-4.07,11.57h-9.69l20.28-56.69h10.75l20.28,56.69h-9.77l-4.07-11.57ZM503.88,467.35l-9.2-26.31-9.28,26.31h18.49Z"/><path class="cls-1" d="M571.89,429.88l-18.73,36.08v20.52h-9.28v-20.52l-18.81-36.08h10.34l13.11,27.77,13.11-27.77h10.26Z"/><path class="cls-1" d="M588.42,485.06c-3.04-1.33-5.43-3.22-7.17-5.66-1.74-2.44-2.61-5.29-2.61-8.55h9.94c.22,2.44,1.18,4.45,2.89,6.03,1.71,1.57,4.11,2.36,7.21,2.36s5.7-.77,7.49-2.32,2.69-3.54,2.69-5.99c0-1.9-.56-3.45-1.67-4.64-1.11-1.19-2.5-2.12-4.15-2.77-1.66-.65-3.95-1.36-6.88-2.12-3.69-.98-6.69-1.97-9-2.97-2.31-1-4.28-2.57-5.9-4.68-1.63-2.12-2.44-4.94-2.44-8.47,0-3.26.81-6.11,2.44-8.55s3.91-4.32,6.84-5.62c2.93-1.3,6.32-1.95,10.18-1.95,5.48,0,9.98,1.37,13.48,4.11,3.5,2.74,5.44,6.5,5.82,11.28h-10.26c-.16-2.06-1.14-3.83-2.93-5.29-1.79-1.47-4.15-2.2-7.08-2.2-2.66,0-4.83.68-6.52,2.04-1.68,1.36-2.52,3.31-2.52,5.86,0,1.74.53,3.16,1.59,4.28,1.06,1.11,2.4,2,4.03,2.65s3.85,1.36,6.68,2.12c3.75,1.03,6.8,2.06,9.16,3.09,2.36,1.03,4.37,2.62,6.03,4.76,1.66,2.15,2.48,5.01,2.48,8.59,0,2.88-.77,5.59-2.32,8.14-1.55,2.55-3.8,4.6-6.76,6.15-2.96,1.55-6.45,2.32-10.47,2.32-3.8,0-7.22-.66-10.26-2Z"/><path class="cls-1" d="M664.74,431.15v54.8h-9.17v-54.8h9.17Z"/><path class="cls-1" d="M713.71,431.15v7.33h-14.88v47.47h-9.17v-47.47h-14.96v-7.33h39Z"/><path class="cls-1" d="M757.45,474.76h-23.4l-4.02,11.2h-9.57l20.02-54.88h10.61l20.02,54.88h-9.65l-4.02-11.2ZM754.88,467.42l-9.09-25.47-9.17,25.47h18.25Z"/><path class="cls-1" d="M789.78,478.7h18.9v7.25h-28.06v-54.8h9.17v47.55Z"/><path class="cls-1" d="M858.53,431.15l-18.49,34.93v19.87h-9.17v-19.87l-18.58-34.93h10.21l12.95,26.89,12.95-26.89h10.13Z"/></svg>