<?xml version="1.0" encoding="utf-8"?>
<!-- Generator: Adobe Illustrator 27.9.5, SVG Export Plug-In . SVG Version: 9.03 Build 54986)  -->
<svg version="1.1" id="Adeptic_Reply" xmlns="http://www.w3.org/2000/svg" xmlns:xlink="http://www.w3.org/1999/xlink" x="0px"
	 y="0px" viewBox="0 0 841.9 283.5" style="enable-background:new 0 0 841.9 283.5;" xml:space="preserve">
<style type="text/css">
	.st0{fill:#F9C319;}
	.st1{fill:#004149;}
</style>
<g id="Logo_50_">
	<g id="RUNNING_MAN_00000070083939214859544380000010601914139663700616_">
		<g>
			<g>
				<path class="st0" d="M172.6,45.8c-9.1,0-16.4,7.3-16.4,16.4c0,9,7.3,16.4,16.4,16.4c9,0,16.4-7.3,16.4-16.4
					C189,53.2,181.6,45.8,172.6,45.8z"/>
			</g>
			<g>
				<path class="st0" d="M136.6,114.8l20.5-27c1-1.4,1.1-3.3,0.2-4.7l-8.7-14c-0.8-1.2-2.1-2-3.6-2l-37.5,0.3l0,0l-20.6,0
					c-1.6,0-2.3,2-1.1,3l5.8,4.7c0.8,0.7,1.8,1.1,2.8,1.3l35.7,6.7L86,130.7L27.8,139c-2,0.3-2.9,2.7-1.5,4.2l5.7,6.1
					c1.1,1.2,2.7,1.9,4.4,1.9l56.2-0.9c2.1,0,4.1-0.6,5.9-1.7l13.5-8.2l28.4,22.5c1.1,0.9,1.9,2.2,2,3.6l5.4,39.8
					c0.3,1.9,1.9,3.3,3.8,3.3h2.9c2.1,0,3.8-1.7,3.8-3.8l0.2-44.2c0-2.3-0.7-4.5-2.1-6.3l-24.8-33.4L136.6,114.8z"/>
			</g>
		</g>
	</g>
	<g>
		<path class="st1" d="M278.1,171.2l-19.4-35h-15.4v35h-21V72.6h46.1c20.6,0,33.3,13.5,33.3,31.8c0,17.3-11.1,26.8-21.7,29.3
			l22.3,37.6H278.1z M280.1,104.2c0-8.1-6.4-13.2-14.6-13.2h-22.2v26.6h22.2C273.8,117.6,280.1,112.6,280.1,104.2z"/>
		<path class="st1" d="M317.4,171.2V72.6h69.8V91h-48.8v20.7h47.8v18.5h-47.8v22.5h48.8v18.5H317.4z"/>
		<path class="st1" d="M403.6,171.2V72.6h46.1c21.4,0,33.1,14.5,33.1,31.8c0,17.2-11.8,31.6-33.1,31.6h-25.1v35.2H403.6z
			 M461.4,104.3c0-8.3-6.4-13.3-14.6-13.3h-22.2v26.5h22.2C455.1,117.5,461.4,112.5,461.4,104.3z"/>
		<path class="st1" d="M495.1,171.2V72.6h21.1v80.1H558v18.5H495.1z"/>
		<path class="st1" d="M580.9,171.2v-40.4L543,72.6h24l24.4,39.5l24.4-39.5h23.8l-37.7,58.3v40.4H580.9z"/>
	</g>
	<g>
		<path class="st0" d="M251.1,236.8l-3-7.9h-18.8l-3,7.9h-8.2l16.1-41.1h9l16.1,41.1H251.1z M238.7,202.9l-7.4,19.6h14.8
			L238.7,202.9z"/>
		<path class="st0" d="M263.8,236.8v-41.1H279c12.9,0,21.5,8.5,21.5,20.5c0,12.1-8.6,20.6-21.4,20.6H263.8z M293.2,216.2
			c0-7.9-4.9-14.2-14-14.2H271v28.4h8.1C288,230.5,293.2,224.1,293.2,216.2z"/>
		<path class="st0" d="M307.5,236.8v-41.1h28.2v6.3h-20.9v10.6h20.5v6.3h-20.5v11.5h20.9v6.3H307.5z"/>
		<path class="st0" d="M343.1,236.8v-41.1h18.1c8.6,0,13.4,5.9,13.4,12.9c0,7-4.8,12.8-13.4,12.8h-10.9v15.4H343.1z M367.1,208.6
			c0-3.9-2.9-6.5-7-6.5h-9.9v13h9.9C364.2,215.1,367.1,212.5,367.1,208.6z"/>
		<path class="st0" d="M390.4,236.8v-34.7h-12.4v-6.3H410v6.3h-12.4v34.7H390.4z"/>
		<path class="st0" d="M416.1,236.8v-41.1h7.2v41.1H416.1z"/>
		<path class="st0" d="M430.3,216.3c0-12.7,9.4-21.3,21.6-21.3c8.3,0,13.4,4.3,16.4,9.2l-6.1,3.2c-2-3.4-6-6-10.3-6
			c-8.1,0-14.2,6.2-14.2,14.8c0,8.6,6,14.8,14.2,14.8c4.4,0,8.4-2.6,10.3-6l6.2,3.1c-3.1,4.9-8.3,9.3-16.5,9.3
			C439.7,237.6,430.3,228.9,430.3,216.3z"/>
	</g>
</g>
</svg>
