<?xml version="1.0" encoding="UTF-8"?><svg id="LOGHI_PANTONE" xmlns="http://www.w3.org/2000/svg" viewBox="0 0 841.89 283.46"><g id="Logo"><g id="RUNNING_MAN"><path d="M172.33,46.22c-9.06,0-16.39,7.35-16.39,16.42s7.32,16.38,16.39,16.38,16.39-7.33,16.39-16.38-7.34-16.42-16.39-16.42Z" style="fill:#f18c02; stroke-width:0px;"/><path d="M136.39,115.19l20.47-26.95c1.05-1.38,1.13-3.26.22-4.73l-8.7-13.95c-.77-1.23-2.12-1.97-3.57-1.96l-37.53.26h0l-20.58-.02c-1.61,0-2.33,2.02-1.07,3.04l5.77,4.65c.81.65,1.77,1.1,2.8,1.29l35.74,6.73-44.22,47.52-58.2,8.27c-2.02.29-2.88,2.72-1.49,4.21l5.68,6.1c1.12,1.21,2.71,1.88,4.36,1.85l56.18-.92c2.08-.03,4.11-.62,5.89-1.71l13.46-8.2,28.41,22.55c1.12.89,1.85,2.17,2.04,3.59l5.41,39.82c.25,1.88,1.86,3.28,3.75,3.28h2.89c2.09,0,3.78-1.69,3.79-3.77l.17-44.19c0-2.28-.72-4.5-2.08-6.33l-24.79-33.41,5.18-7.01Z" style="fill:#f18c02; stroke-width:0px;"/></g><path d="M277.83,171.55l-19.37-35.04h-15.38v35.04h-21v-98.62h46.13c20.55,0,33.27,13.45,33.27,31.79,0,17.3-11.09,26.76-21.73,29.28l22.33,37.56h-24.25ZM279.9,104.57c0-8.13-6.36-13.16-14.64-13.16h-22.18v26.61h22.18c8.28,0,14.64-5.03,14.64-13.45Z" style="fill:#024854; stroke-width:0px;"/><path d="M317.16,171.55v-98.62h69.79v18.48h-48.79v20.7h47.76v18.48h-47.76v22.47h48.79v18.48h-69.79Z" style="fill:#024854; stroke-width:0px;"/><path d="M403.35,171.55v-98.62h46.13c21.44,0,33.12,14.49,33.12,31.79s-11.83,31.64-33.12,31.64h-25.14v35.19h-20.99ZM461.17,104.72c0-8.28-6.36-13.31-14.64-13.31h-22.18v26.47h22.18c8.28,0,14.64-5.03,14.64-13.16Z" style="fill:#024854; stroke-width:0px;"/><path d="M494.87,171.55v-98.62h21.14v80.14h41.7v18.48h-62.84Z" style="fill:#024854; stroke-width:0px;"/><path d="M580.63,171.55v-40.36l-37.85-58.26h23.95l24.4,39.48,24.4-39.48h23.81l-37.7,58.26v40.36h-21Z" style="fill:#024854; stroke-width:0px;"/><path d="M221.57,237.2v-41.09h7.21v34.74h18.11v6.34h-25.32Z" style="fill:#f18c02; stroke-width:0px;"/><path d="M253.24,237.2v-41.09h7.21v41.09h-7.21Z" style="fill:#f18c02; stroke-width:0px;"/><path d="M281.08,237.2l-16.14-41.09h8.19l12.44,33.2,12.44-33.2h8.19l-16.14,41.09h-8.99Z" style="fill:#f18c02; stroke-width:0px;"/><path d="M310.65,237.2v-41.09h28.15v6.34h-20.94v10.59h20.51v6.34h-20.51v11.46h20.94v6.34h-28.15Z" style="fill:#f18c02; stroke-width:0px;"/></g></svg>